<svg width="83" height="75" fill="none" xmlns="http://www.w3.org/2000/svg"><path d="M44.648 14.95c.262.37.805.48 1.214.244.846-.488.137-1.28-.231-1.8-.636-.9-1.718-1.454-2.895-1.483-1.456-.095-2.79.896-3.512 2.03-.28.358-.187.854.209 1.11.396.256.945.172 1.225-.184.523-.665 1.005-1.392 2.038-1.366 1.024.026 1.467.763 1.952 1.449z" fill="#fff"/><path d="M69.709 26.323l-2.114-.046c-1.027-.023-1.901.615-2.13 1.483L60.23 24.82l.068-3.16c.012-.52-.2-1.013-.598-1.389a2.25 2.25 0 00-1.506-.601l-2.114-.046a2.252 2.252 0 00-1.53.536c-.347.3-.566.689-.634 1.112l-4.093-2.3-.501-7.28c-.105-1.513-.828-2.925-2.036-3.978a6.655 6.655 0 00-.93-.677l-.367-3.1c-.082-.683-.435-1.318-.996-1.787a3.321 3.321 0 00-2.05-.75c-1.57-.034-2.926.999-3.153 2.403l-.499 3.06c-1.762.947-3.016 2.614-3.225 4.572l-.744 6.967-4.669 2.362a1.863 1.863 0 00-.585-1.14 2.253 2.253 0 00-1.506-.602l-2.114-.046c-1.184-.026-2.166.825-2.19 1.896l-.069 3.161-5.358 2.71c-.191-.877-1.037-1.552-2.064-1.575l-2.114-.046a2.253 2.253 0 00-1.53.536 1.843 1.843 0 00-.66 1.36l-.065 2.979-4.385 2.217c-1.17.592-1.914 1.715-1.94 2.93l-.105 4.803c-.075 1.41 1.517 2.823 3.235 2.513l25.794-4.072.795 10.197c.034.438.453.77.936.74.484-.029.848-.407.814-.844l-1.468-18.84a11.124 11.124 0 01.03-2.04l1.709-16.007c.244-2.288 2.427-4.038 4.969-3.983 2.528.056 4.631 1.888 4.788 4.172l1.105 16.041c.049.713.028 1.434-.061 2.143l-3.352 26.625a.686.686 0 00-.004.032l-.421 3.346c-.147 1.166-1.074 2.157-2.326 2.467l.12-5.51c.01-.438-.375-.802-.86-.813-.484-.01-.884.336-.894.775l-.121 5.539c-1.296-.334-2.236-1.394-2.33-2.608l-.603-7.734c-.034-.438-.453-.769-.936-.74-.484.029-.848.407-.814.845l.3 3.864c-1.48.8-2.95 2.101-4.374 3.88a2.077 2.077 0 00-.21 2.335c.418.76 1.258 1.244 2.194 1.265l5.435.118c.406.183.843.318 1.303.396l-.037 1.655c-.01.438.376.802.86.813.373-.006.842-.23.895-.775l.036-1.673a5.326 5.326 0 001.21-.325l5.427.119c1.839.111 3.3-1.99 2.14-3.51-1.34-1.832-2.746-3.194-4.186-4.057l2.205-17.512 25.125 5.099c1.544.337 3.314-.748 3.342-2.37l.105-4.802c.026-1.215-.667-2.37-1.81-3.012l-4.284-2.407.065-2.978c.023-1.071-.921-1.964-2.105-1.99zM26.013 20.91c.004-.196.184-.352.4-.347l2.114.046c.175.035.314.04.386.364l-.015.678-2.934 1.484.049-2.225zm-11.795 6.145c.038-.157.042-.284.4-.346l2.114.046c.217.004.39.168.386.364l-.011.495-2.934 1.484.045-2.043zm-5.324 13.84c-.543.064-1.177-.258-1.17-.979l27-5.046.149 1.924-25.979 4.1zM34.357 27.44a12.557 12.557 0 00-.033 2.304l.275 3.526-26.84 5.017.068-3.106c.014-.655.416-1.261 1.047-1.58l5.838-2.954-.035 1.6c-.01.439.376.803.86.813.373-.005.842-.23.895-.774l.055-2.536 10.016-5.066-.035 1.624c-.01.439.375.803.86.813.373-.005.842-.23.894-.774l.056-2.56 6.839-3.46-.76 7.113zm6.82-21.265l.349-2.135c.225-1.39 2.55-1.35 2.718.06l.256 2.158a7.223 7.223 0 00-3.322-.083zM33.36 61.566a.608.608 0 01.062-.696c.754-.942 1.838-2.122 3.095-2.984l.159 2.037c.06.772.329 1.485.754 2.098l-3.412-.075a.742.742 0 01-.658-.38zm22.286-40.01c.038-.157.042-.283.4-.346l2.115.046c.175.036.314.039.384.364l-.048 2.224-2.866-1.61.015-.678zM49.79 61.224c.258.516.111.918-.643 1.05L45.74 62.2a4.24 4.24 0 00.841-2.045l.257-2.04c1.215.916 2.243 2.139 2.953 3.11zm26.298-24.552l-.066 3.02-19.904-4.572c-.47-.109-.947.148-1.064.573-.117.425.169.858.639.965l20.294 4.663-.004.153a.869.869 0 01-.38.69 1.072 1.072 0 01-.83.169L49.47 37.197l.24-1.909 2.062.524c.415.043.853.004 1.08-.55.128-.422-.146-.86-.613-.979l-2.328-.59.445-3.54c.101-.801.124-1.616.069-2.422l-.47-6.82 6.2 3.484-.056 2.56c-.01.439.375.803.86.814.373-.006.841-.23.894-.775l.036-1.625 9.785 5.499-.055 2.535c-.01.439.375.803.86.813.373-.005.841-.23.894-.774l.035-1.6 5.703 3.204c.616.347.99.97.977 1.626zm-6.029-8.397l-.044 2.042c-.696-.398-2.157-1.212-2.866-1.61l.011-.496c.004-.196.184-.351.4-.347l2.114.046c.217.005.39.169.385.365z" fill="#fff"/></svg>