<svg width="11" height="22" fill="none" xmlns="http://www.w3.org/2000/svg"><path d="M9.864 18.788l-.294 1.203a55.55 55.55 0 01-2.113.796c-.526.183-1.137.274-1.833.274-1.069 0-1.9-.262-2.493-.782-.593-.522-.89-1.183-.89-1.986a7 7 0 01.067-.956c.045-.326.117-.693.215-1.103l1.103-3.905c.098-.374.182-.729.249-1.064.067-.333.1-.639.1-.915 0-.498-.103-.847-.309-1.043-.205-.196-.598-.295-1.18-.295a3.07 3.07 0 00-.877.134c-.3.088-.557.174-.772.254l.295-1.204a27.615 27.615 0 012.074-.755 6.205 6.205 0 011.876-.315c1.062 0 1.88.256 2.456.77.575.513.863 1.178.863 1.999 0 .17-.02.468-.06.896-.04.428-.113.82-.221 1.177l-1.099 3.89c-.09.312-.17.67-.241 1.071-.073.4-.107.704-.107.909 0 .516.115.869.346 1.056.232.188.633.281 1.202.281.267 0 .57-.047.908-.14.337-.093.583-.175.735-.247zm.279-16.328c0 .677-.256 1.256-.77 1.732-.511.477-1.128.716-1.85.716a2.645 2.645 0 01-1.86-.716c-.516-.476-.775-1.055-.775-1.732s.259-1.256.776-1.738A2.633 2.633 0 017.524 0c.721 0 1.338.241 1.85.722.514.482.769 1.061.769 1.738z" fill="#969696"/></svg>