<svg width="29" height="29" fill="none" xmlns="http://www.w3.org/2000/svg"><circle cx="14.5" cy="14.5" r="14.5" fill="#7D3DAF"/><path d="M23.72 9.758l-.005-.022c-.462-1.868-2.545-3.872-4.457-4.289l-.022-.004a24.77 24.77 0 00-9.323 0l-.022.004c-1.912.417-3.995 2.421-4.458 4.289l-.005.022a18.248 18.248 0 000 7.862l.005.022c.443 1.788 2.37 3.7 4.212 4.226v2.085c0 .754.92 1.125 1.443.58l2.112-2.195a24.848 24.848 0 006.037-.402l.02-.005c1.913-.417 3.996-2.42 4.458-4.289l.006-.022a18.25 18.25 0 000-7.862zm-1.67 7.483c-.31 1.219-1.89 2.733-3.147 3.013a23.098 23.098 0 01-4.959.401.117.117 0 00-.088.035l-1.542 1.584-1.64 1.683a.192.192 0 01-.33-.133v-3.453a.119.119 0 00-.098-.116c-1.257-.28-2.838-1.795-3.147-3.014a16.56 16.56 0 010-7.104c.31-1.219 1.89-2.734 3.146-3.013a23.07 23.07 0 018.658 0c1.257.28 2.838 1.794 3.146 3.013a16.542 16.542 0 010 7.104z" fill="#fff"/><path d="M17.308 18.835c-.193-.058-.377-.098-.548-.168-1.772-.735-3.402-1.684-4.694-3.137-.734-.827-1.309-1.76-1.795-2.747-.23-.469-.424-.955-.622-1.439-.18-.44.085-.896.365-1.228.263-.312.6-.55.967-.727.285-.137.567-.058.776.184a10.01 10.01 0 011.2 1.681c.207.373.15.83-.223 1.084-.091.061-.174.134-.259.204a.847.847 0 00-.195.205.563.563 0 00-.037.495c.46 1.267 1.238 2.252 2.513 2.783.204.085.41.184.644.156.394-.046.522-.478.798-.703.27-.22.614-.224.904-.04.291.184.573.381.853.581.275.196.548.387.802.61.243.215.327.497.19.788-.251.534-.617.978-1.144 1.261-.15.08-.327.106-.495.157-.193-.058.168-.051 0 0zM14.58 8.78c2.316.064 4.22 1.602 4.628 3.893.069.39.094.79.125 1.185.013.167-.082.325-.261.327-.186.003-.27-.153-.282-.32-.024-.329-.04-.66-.086-.987-.24-1.726-1.616-3.154-3.334-3.46-.259-.047-.523-.059-.785-.086-.166-.018-.383-.028-.42-.234-.03-.172.116-.31.28-.318.045-.003.09 0 .134 0 2.317.064-.045 0 0 0z" fill="#fff"/><path d="M18.1 13.344c-.003.03-.005.097-.022.161-.062.233-.415.262-.496.027a.698.698 0 01-.027-.224A2.818 2.818 0 0017.2 11.9a2.62 2.62 0 00-1.1-1.03 3.163 3.163 0 00-.875-.27c-.132-.022-.266-.035-.399-.053-.16-.023-.246-.125-.239-.284a.25.25 0 01.278-.246c.532.03 1.045.145 1.518.396.961.509 1.51 1.313 1.67 2.386.008.048.02.096.023.145.01.12.015.241.024.4-.003.03-.009-.159 0 0z" fill="#fff"/><path d="M16.66 13.288c-.195.004-.298-.104-.318-.281-.014-.124-.025-.25-.055-.37a1.042 1.042 0 00-.384-.604 1.004 1.004 0 00-.313-.15c-.142-.042-.29-.03-.432-.065-.154-.038-.24-.163-.215-.307a.279.279 0 01.294-.224c.898.065 1.54.53 1.632 1.587.006.074.014.153-.003.225a.232.232 0 01-.207.19c-.194.003.088-.007 0 0z" fill="#fff"/></svg>