<svg width="9" height="19" fill="none" xmlns="http://www.w3.org/2000/svg"><path d="M2.554 17.137a4.142 4.142 0 01-.825-1.184 15.15 15.15 0 01-1.41-6.37c0-2.191.487-4.394 1.41-6.37a4.111 4.111 0 011.28-1.577 4.208 4.208 0 013.715-.65c.664.2 1.253.554 1.751 1.052.155.154.18.396.062.58L6.647 5.54a.465.465 0 01-.39.212H4.495a12.226 12.226 0 000 7.663h1.762c.157 0 .304.08.39.212l1.89 2.92a.465.465 0 01-.062.582 4.14 4.14 0 01-1.751 1.05 4.225 4.225 0 01-3.714-.65 4.131 4.131 0 01-.456-.392zm4.988-14.69a3.217 3.217 0 00-2.596-.658A3.2 3.2 0 002.57 3.607a14.088 14.088 0 000 11.952 3.2 3.2 0 002.375 1.819 3.217 3.217 0 002.596-.658l-1.538-2.376h-1.84a.464.464 0 01-.437-.307 13.152 13.152 0 010-8.907.464.464 0 01.437-.307h1.84l1.538-2.377z" fill="#FF8A00"/></svg>