<svg width="53" height="60" fill="none" xmlns="http://www.w3.org/2000/svg"><path d="M12.469 13.531H33.78a.969.969 0 100-1.937H12.47a.969.969 0 100 1.937zM12.469 19.344H33.78a.969.969 0 000-1.938H12.47a.969.969 0 000 1.938zM12.469 25.156H33.78a.969.969 0 100-1.937H12.47a.969.969 0 100 1.937zM12.469 30.969H33.78a.969.969 0 000-1.938H12.47a.969.969 0 000 1.938zM12.469 36.781h7.75a.969.969 0 100-1.937h-7.75a.969.969 0 100 1.937z" fill="#fff"/><path d="M50.75 23.826a2.91 2.91 0 00-3.977 1.038l-2.336 3.986V4.812a.969.969 0 00-.968-.968H36.12S33.21.879 33.093.979a.965.965 0 00-.28-.041H4.718a.969.969 0 00-.969.968v3.03a3.875 3.875 0 000 7.504v2.183a3.875 3.875 0 000 7.504v2.183a3.875 3.875 0 000 7.505v1.214a3.875 3.875 0 000 7.505v5.935a.969.969 0 00.969.968h.969v2.907a.969.969 0 00.968.968h24.618l-.664 1.133a.962.962 0 00-.119.33c0 .005-.003.01-.003.016l-.003.016v.003l-.775 5.14a.969.969 0 001.552.909l4.12-3.2c.265-.204.394-.33.373-.498l2.256-3.849h5.458a.97.97 0 00.968-.968v-9.998l7.35-12.543a2.91 2.91 0 00-1.037-3.977zm-1.714 1.57a.968.968 0 011.08 1.427l-.49.836-1.67-.98.49-.835a.961.961 0 01.59-.448zM34.443 53.569l-1.671-.98 12.734-21.73 1.671.98-12.734 21.73zM33.78 4.245l3.474 3.474h-3.474V4.245zm12.705 24.942l.49-.836 1.671.98-.49.835-1.671-.98zM42.5 5.78v26.157a.98.98 0 00.018.187l-1.956 3.337V8.687a.967.967 0 00-.282-.684h-.001L38.058 5.78H42.5zM5.688 2.875h26.156v5.813a.969.969 0 00.968.968h5.813v29.112L34.68 45.5H5.688v-4.966a3.871 3.871 0 002.784-2.785.97.97 0 00-1.877-.483 1.932 1.932 0 01-.907 1.192v-6.643a3.873 3.873 0 002.784-2.785.969.969 0 10-1.877-.482 1.931 1.931 0 01-.907 1.192v-7.612a3.873 3.873 0 002.784-2.785.969.969 0 10-1.877-.483 1.931 1.931 0 01-.907 1.192V12.44a3.873 3.873 0 002.784-2.784.969.969 0 00-1.877-.483 1.931 1.931 0 01-.907 1.192v-7.49zM2.78 8.688a1.937 1.937 0 01.969-1.676v3.35a1.937 1.937 0 01-.969-1.675zm0 9.687A1.938 1.938 0 013.75 16.7v3.35a1.937 1.937 0 01-.969-1.675zm0 9.688a1.938 1.938 0 01.969-1.676v3.35a1.937 1.937 0 01-.969-1.674zm0 8.718a1.937 1.937 0 01.969-1.675v3.35a1.937 1.937 0 01-.969-1.675zm4.844 12.594v-1.938h25.92l-1.136 1.938H7.625zm24.565 5.12l.874.512-1.077.836.203-1.349zm10.31-5.12h-3.354l3.354-5.723v5.723z" fill="#fff"/></svg>