<svg width="62" height="62" fill="none" xmlns="http://www.w3.org/2000/svg"><g clip-path="url(#clip0)" fill="#fff"><path d="M48.662 35.76l-7.833-4.832a1.225 1.225 0 00-1.667.395 1.225 1.225 0 00.395 1.666l7.832 4.833a1.22 1.22 0 001.666-.395 1.22 1.22 0 00-.393-1.666zM36.072 28.205a1.22 1.22 0 00-1.18 1.488c.07.3.277.573.548.745.187.118.404.189.63.189.423 0 .81-.215 1.03-.575.473-.769-.12-1.847-1.028-1.847zM23.533 31.26c-.342-.544-1.13-.72-1.67-.378l-7.785 4.909c-.56.353-.731 1.11-.379 1.67.212.336.622.533 1.027.544.227.007.454-.046.644-.165l7.785-4.91c.56-.354.73-1.11.378-1.67zM26.603 28.111c-.562 0-1.055.396-1.18.943-.169.747.422 1.48 1.183 1.48.56 0 1.056-.396 1.18-.944a1.22 1.22 0 00-1.183-1.479z"/><path d="M61.703 55.153a1.211 1.211 0 00-1.709-.119c-1.29 1.123-2.486 2.287-4.18 2.755-1.883.52-3.673.11-5.378-.742l6.307-21.219a1.211 1.211 0 00-.533-1.38l-5.835-3.536V20.59c0-.67-.542-1.211-1.211-1.211h-2.422v-3.633c0-.669-.542-1.211-1.21-1.211h-3.815V10.9c0-.669-.542-1.21-1.211-1.21h-5.873V1.213c0-.67-.542-1.211-1.211-1.211h-4.844c-.669 0-1.21.542-1.21 1.21V9.69h-5.874c-.669 0-1.21.542-1.21 1.211v3.633h-3.815c-.669 0-1.211.542-1.211 1.21v3.634h-2.422c-.669 0-1.211.542-1.211 1.21v10.324l-5.834 3.535a1.21 1.21 0 00-.534 1.381l6.294 21.175c-.107-.361-2.045-.6-2.388-.644-3.526-.456-6.207 1.31-8.747 3.519a1.21 1.21 0 00-.119 1.708 1.226 1.226 0 001.708.12c2.617-2.275 5.567-4.01 9.029-2.278 3.132 1.566 6.374 2.237 9.636.52 2.63-1.384 5.169-2.58 8.105-1.181l3.018 1.437a9.163 9.163 0 008.09-.078c1.576-.788 3.178-1.837 4.978-1.96 1.766-.122 3.471.535 5.022 1.311 2.049 1.025 4.447 1.23 6.647.602 2.027-.577 3.502-1.868 5.053-3.218a1.21 1.21 0 00.12-1.708zM47.953 21.8v7.645l-12.618-7.646h12.618zM29.79 2.425h2.422V9.69h-2.422V2.425zm-7.084 9.687h16.59v2.422h-16.59v-2.422zm-8.658 9.687h12.618l-12.618 7.646v-7.646zm15.742 34.768c0-.215-1.726-.612-1.952-.66-2.107-.457-4.37-.167-6.28.838-1.387.73-2.724 1.581-4.31 1.785l-.009.001a6.933 6.933 0 01-2.77-.217l-6.623-22.28L29.79 22.738v33.83zm-12.11-37.19v-2.421H44.32v2.422H17.68zm30.519 36.7c.013-.375-3.395-.372-3.624-.348-2.102.222-3.92 1.304-5.775 2.231-2.191 1.096-4.446.78-6.588-.24V22.739l21.944 13.296-5.957 20.042z"/></g><defs><clipPath id="clip0"><path fill="#fff" d="M0 0h62v62H0z"/></clipPath></defs></svg>