<svg width="22" height="22" fill="none" xmlns="http://www.w3.org/2000/svg"><g clip-path="url(#clip0)" fill="#969696"><path d="M18.87 17.368l-.94-11.852a1.48 1.48 0 00-1.47-1.361h-1.858v2.752a.617.617 0 11-1.234 0V4.155H7.693v2.752a.617.617 0 11-1.233 0V4.155H4.602a1.48 1.48 0 00-1.47 1.36l-.94 11.854a3.44 3.44 0 00.902 2.593 3.44 3.44 0 002.516 1.1h9.841a3.44 3.44 0 002.516-1.1 3.44 3.44 0 00.903-2.594zm-5.56-6.036l-3.19 3.19a.615.615 0 01-.873 0l-1.495-1.495a.617.617 0 11.872-.872l1.06 1.06 2.754-2.755a.617.617 0 01.872.872zM10.53 0a4.076 4.076 0 00-4.07 4.07v.084h1.233V4.07a2.84 2.84 0 012.838-2.838 2.84 2.84 0 012.837 2.838v.084H14.6V4.07A4.076 4.076 0 0010.531 0z"/></g><defs><clipPath id="clip0"><path fill="#fff" d="M0 0h21.061v21.061H0z"/></clipPath></defs></svg>