<svg width="22" height="22" fill="none" xmlns="http://www.w3.org/2000/svg"><g clip-path="url(#clip0)" fill="#969696"><path d="M6.828 13.616h11.148a.615.615 0 00.593-.448l2.468-8.638a.616.616 0 00-.593-.787H5.404l-.441-1.985a.617.617 0 00-.603-.483H.617a.617.617 0 100 1.234h3.248l2.228 10.027a1.852 1.852 0 00-1.116 1.697c0 1.02.83 1.851 1.851 1.851h11.148a.617.617 0 100-1.234H6.828a.618.618 0 010-1.234zm-.617 4.319c0 1.021.83 1.852 1.852 1.852a1.852 1.852 0 10-1.852-1.852zm8.68 0c0 1.021.83 1.852 1.851 1.852s1.851-.83 1.851-1.852a1.852 1.852 0 00-3.702 0z"/></g><defs><clipPath id="clip0"><path fill="#fff" d="M0 0h21.061v21.061H0z"/></clipPath></defs></svg>