<svg width="59" height="59" fill="none" xmlns="http://www.w3.org/2000/svg"><path d="M40.563 24.583H18.438a1.23 1.23 0 01-1.23-1.229V1.23c0-.678.551-1.229 1.23-1.229h22.125c.678 0 1.229.55 1.229 1.23v22.124c0 .679-.55 1.23-1.23 1.23zm-20.896-2.458h19.666V2.458H19.668v19.667z" fill="#fff"/><path d="M33.188 9.833h-7.375a1.23 1.23 0 01-1.23-1.229V1.23c0-.678.551-1.229 1.23-1.229h7.375c.678 0 1.229.55 1.229 1.23v7.374c0 .679-.55 1.23-1.23 1.23zm-6.146-2.458h4.916V2.458h-4.916v4.917zM29.5 46.708H6.146a1.23 1.23 0 01-1.23-1.229V23.354c0-.678.551-1.229 1.23-1.229H29.5c.678 0 1.229.55 1.229 1.23v22.124c0 .679-.55 1.23-1.23 1.23zM7.375 44.25H28.27V24.583H7.375V44.25z" fill="#fff"/><path d="M20.896 31.958H13.52a1.23 1.23 0 01-1.23-1.229v-7.375c0-.678.551-1.229 1.23-1.229h7.375c.678 0 1.229.55 1.229 1.23v7.374c0 .679-.55 1.23-1.23 1.23zM14.75 29.5h4.916v-4.917H14.75V29.5zM52.854 46.708H29.5a1.23 1.23 0 01-1.229-1.229V23.354c0-.678.55-1.229 1.23-1.229h23.353c.679 0 1.23.55 1.23 1.23v22.124c0 .679-.551 1.23-1.23 1.23zM30.73 44.25h20.896V24.583H30.73V44.25z" fill="#fff"/><path d="M45.48 31.958h-7.376a1.23 1.23 0 01-1.229-1.229v-7.375c0-.678.55-1.229 1.23-1.229h7.374c.679 0 1.23.55 1.23 1.23v7.374c0 .679-.551 1.23-1.23 1.23zM39.332 29.5h4.917v-4.917h-4.917V29.5zM57.77 59h-9.833a1.23 1.23 0 01-1.229-1.23v-3.687h-9.833v3.688c0 .678-.55 1.229-1.23 1.229h-12.29a1.23 1.23 0 01-1.23-1.23v-3.687h-9.833v3.688c0 .678-.551 1.229-1.23 1.229H1.23A1.23 1.23 0 010 57.77V45.48c0-.68.55-1.23 1.23-1.23h56.54c.68 0 1.23.55 1.23 1.23v12.29c0 .68-.55 1.23-1.23 1.23zm-8.603-2.458h7.375v-9.834H2.458v9.834h7.375v-3.688c0-.678.551-1.229 1.23-1.229h12.291c.679 0 1.23.55 1.23 1.23v3.687h9.833v-3.688c0-.678.55-1.229 1.229-1.229h12.291c.679 0 1.23.55 1.23 1.23v3.687z" fill="#fff"/></svg>