<svg width="29" height="29" fill="none" xmlns="http://www.w3.org/2000/svg"><path d="M14.255 28.51a14.26 14.26 0 01-10.9-5.067A14.266 14.266 0 010 14.255c0-3.808 1.483-7.387 4.175-10.08A14.162 14.162 0 0114.255 0c3.808 0 7.387 1.483 10.08 4.175a14.161 14.161 0 014.175 10.08 14.266 14.266 0 01-5.037 10.874 14.26 14.26 0 01-9.218 3.381zm0-26.728c-6.878 0-12.473 5.595-12.473 12.473A12.482 12.482 0 006.19 23.77a12.476 12.476 0 0017.603-1.477 12.48 12.48 0 002.935-8.038c0-6.878-5.595-12.473-12.473-12.473z" fill="#333"/><path d="M14.255 14.255a5.352 5.352 0 01-5.346-5.346 5.352 5.352 0 015.346-5.345A5.352 5.352 0 0119.6 8.909a5.352 5.352 0 01-5.345 5.346zm0-8.91A3.568 3.568 0 0010.69 8.91a3.568 3.568 0 003.564 3.564 3.568 3.568 0 003.564-3.564 3.568 3.568 0 00-3.564-3.563z" fill="#333"/><path d="M22.897 25.34a.892.892 0 01-.865-1.107c.16-.637.241-1.297.241-1.96 0-4.359-3.544-7.955-7.9-8.017l-.118-.001h-.117c-4.357.063-7.902 3.66-7.902 8.018 0 .663.082 1.323.242 1.96a.89.89 0 01-1.729.433 9.836 9.836 0 01-.294-2.393A9.742 9.742 0 017.28 15.39a9.742 9.742 0 016.836-2.915h.265a9.741 9.741 0 016.849 2.916 9.742 9.742 0 012.825 6.883 9.85 9.85 0 01-.294 2.393.891.891 0 01-.864.675z" fill="#333"/></svg>