<svg width="20" height="21" fill="none" xmlns="http://www.w3.org/2000/svg"><path d="M18.72 5.164l-.005-.023c-.462-1.881-2.545-3.9-4.457-4.32l-.022-.005a24.587 24.587 0 00-9.323 0L4.89.821C2.979 1.24.896 3.26.433 5.14l-.005.023a18.522 18.522 0 000 7.921l.005.023c.443 1.801 2.37 3.728 4.212 4.258v2.1c0 .76.92 1.134 1.443.585L8.2 17.839a24.355 24.355 0 006.036-.406l.022-.004c1.912-.42 3.995-2.44 4.457-4.32l.006-.024a18.522 18.522 0 000-7.92zm-1.67 7.54c-.31 1.227-1.89 2.754-3.147 3.036-1.645.315-3.303.45-4.96.403a.117.117 0 00-.087.036l-1.542 1.595-1.64 1.696a.192.192 0 01-.33-.133v-3.48a.12.12 0 00-.099-.117C3.99 15.458 2.408 13.93 2.1 12.704a16.808 16.808 0 010-7.159c.31-1.227 1.89-2.753 3.146-3.035 2.873-.55 5.786-.55 8.658 0 1.257.282 2.838 1.808 3.146 3.035a16.79 16.79 0 010 7.159z" fill="#fff"/><path d="M12.308 14.313c-.193-.06-.377-.099-.548-.17-1.772-.74-3.402-1.696-4.694-3.16-.734-.834-1.309-1.774-1.795-2.769-.23-.472-.424-.962-.622-1.449-.18-.444.085-.903.365-1.238.263-.314.6-.554.967-.732.285-.138.567-.058.776.186.45.527.865 1.082 1.2 1.693.207.376.15.836-.223 1.092-.091.062-.174.135-.259.205a.85.85 0 00-.195.208.571.571 0 00-.037.498c.46 1.277 1.238 2.27 2.513 2.804.204.086.41.185.644.158.394-.047.522-.482.798-.71.27-.221.614-.224.904-.04.291.186.573.385.853.586.274.197.548.39.802.615.243.217.327.5.19.794-.251.537-.617.985-1.144 1.27-.15.08-.327.107-.495.159-.193-.06.168-.052 0 0zM9.58 4.18c2.316.066 4.22 1.616 4.627 3.926.07.394.095.796.126 1.195.013.168-.082.328-.261.33-.186.002-.27-.154-.282-.322-.024-.333-.04-.667-.086-.996-.24-1.74-1.616-3.18-3.334-3.49-.259-.046-.523-.058-.785-.086-.166-.017-.383-.027-.42-.235-.03-.174.116-.312.28-.321.045-.003.09 0 .134 0 2.317.065-.044 0 0 0z" fill="#fff"/><path d="M13.1 8.783c-.003.03-.005.098-.022.162-.062.235-.414.264-.496.028a.71.71 0 01-.027-.226c-.001-.495-.108-.99-.355-1.42a2.63 2.63 0 00-1.1-1.04 3.141 3.141 0 00-.875-.27c-.132-.022-.266-.036-.399-.054-.16-.023-.246-.126-.239-.286a.25.25 0 01.278-.248c.532.03 1.045.146 1.518.398.961.514 1.51 1.324 1.67 2.406.008.049.02.098.023.147.01.121.015.243.024.403-.003.03-.009-.16 0 0z" fill="#fff"/><path d="M11.66 8.726c-.195.003-.298-.105-.318-.284-.014-.125-.025-.252-.055-.373a1.051 1.051 0 00-.384-.608 1 1 0 00-.313-.152c-.142-.042-.29-.03-.432-.065-.154-.038-.24-.164-.215-.31a.279.279 0 01.294-.225c.898.065 1.54.533 1.632 1.599.006.075.014.155-.003.227-.028.123-.118.185-.207.19-.194.004.088-.005 0 0z" fill="#fff"/></svg>