<svg width="83" height="75" viewBox="0 0 83 75" fill="none" xmlns="http://www.w3.org/2000/svg">
<path d="M44.6477 14.9495C44.9098 15.3202 45.4534 15.43 45.862 15.1944C46.7078 14.7064 45.9989 13.9148 45.6308 13.394C44.9952 12.4948 43.9131 11.9404 42.7361 11.911C41.2796 11.8157 39.9453 12.8069 39.2239 13.9414C38.9432 14.2986 39.0366 14.7955 39.4326 15.051C39.8288 15.3066 40.3777 15.2235 40.658 14.867C41.1807 14.2019 41.6625 13.4754 42.6955 13.5012C43.7201 13.5267 44.1632 14.2639 44.6477 14.9495Z" fill="white"/>
<path d="M69.7088 26.323L67.5947 26.2769C66.5679 26.2545 65.6939 26.8919 65.4647 27.7603L60.2299 24.8188L60.2982 21.6591C60.3101 21.1396 60.0978 20.6463 59.7002 20.2704C59.3025 19.8945 58.7672 19.6808 58.1939 19.669L56.0801 19.6228C55.5065 19.6103 54.963 19.8006 54.5496 20.1586C54.2027 20.4589 53.9843 20.8477 53.9156 21.2709L49.8227 18.9711L49.3216 11.6906C49.2175 10.1783 48.4945 8.76559 47.286 7.7126C46.9965 7.46046 46.6849 7.23509 46.3561 7.0364L45.9886 3.93675C45.9074 3.25261 45.554 2.61822 44.9926 2.14933C44.4315 1.68219 43.7037 1.41568 42.9431 1.39908C41.3732 1.36481 40.0173 2.39785 39.7896 3.8017L39.2911 6.86113C37.5293 7.80873 36.2753 9.4756 36.0663 11.434L35.3222 18.4014L30.6532 20.7632C30.6029 20.3371 30.4016 19.9392 30.0681 19.6239C29.6704 19.248 29.1356 19.034 28.5621 19.0214L26.4483 18.9751C25.2643 18.9492 24.2817 19.7999 24.2583 20.8714L24.1891 24.0322L18.8308 26.7423C18.6395 25.8646 17.7939 25.1898 16.7669 25.1673L14.6531 25.121C14.0797 25.1085 13.5359 25.2989 13.1222 25.6571C12.7086 26.0153 12.4745 26.4984 12.4632 27.0172L12.3981 29.9955L8.01315 32.2133C6.8428 32.805 6.09916 33.9277 6.07261 35.143L5.96773 39.9455C5.89302 41.3552 7.48455 42.7691 9.20319 42.4586L34.9971 38.3868L35.7916 48.5844C35.8257 49.0219 36.2452 49.3532 36.7285 49.3242C37.2118 49.2953 37.576 48.9172 37.542 48.4796L36.0743 29.6394C36.0215 28.9623 36.0313 28.2762 36.1034 27.6001L37.8129 11.5934C38.0572 9.30457 40.24 7.55486 42.7817 7.61042C45.3096 7.66561 47.413 9.4981 47.5704 11.7823L48.6745 27.823C48.7236 28.536 48.7031 29.2571 48.6139 29.9664L45.2621 56.5911C45.2605 56.6017 45.2592 56.6122 45.2581 56.6228L44.837 59.9687C44.6902 61.1351 43.7633 62.126 42.511 62.4362L42.6314 56.9259C42.641 56.4876 42.256 56.1236 41.7715 56.113C41.2871 56.1024 40.8866 56.4492 40.8769 56.8876L40.756 62.4269C39.4601 62.093 38.52 61.0329 38.4254 59.8188L37.8234 52.085C37.7894 51.6474 37.3699 51.3161 36.8866 51.3451C36.4032 51.374 36.039 51.7522 36.073 52.1896L36.3738 56.0541C34.8924 56.8533 33.423 58.155 31.9985 59.9346C31.4523 60.6171 31.3721 61.5116 31.789 62.2693C32.2069 63.0287 33.0475 63.5131 33.9828 63.5336L39.4183 63.6523C39.8237 63.8352 40.2607 63.9696 40.7205 64.0479L40.6843 65.7028C40.6748 66.1412 41.0597 66.5051 41.5442 66.5157C41.9174 66.5103 42.3862 66.2862 42.4388 65.7411L42.4753 64.0681C42.8984 64.0057 43.3042 63.8959 43.6844 63.7431L49.1124 63.8617C50.9508 63.973 52.4112 61.8715 51.252 60.3527C49.9115 58.5195 48.5058 57.1582 47.0664 56.2946L49.2709 38.7828L74.3958 43.8819C75.9399 44.2188 77.7105 43.1342 77.7379 41.5126L77.8429 36.7098C77.8695 35.4948 77.1756 34.3408 76.0323 33.6984L71.7487 31.2914L71.8138 28.3131C71.8371 27.2416 70.8928 26.3489 69.7088 26.323ZM26.0128 20.9096C26.0171 20.7137 26.1967 20.5578 26.4136 20.5626L28.5274 20.6087C28.7017 20.644 28.8415 20.6485 28.9128 20.973L28.898 21.6507L25.9641 23.1346L26.0128 20.9096ZM14.2176 27.0555C14.2559 26.8981 14.2602 26.7715 14.6185 26.7085L16.7323 26.7546C16.949 26.7593 17.1219 26.9228 17.1177 27.1189L17.1068 27.6141L14.1729 29.098L14.2176 27.0555ZM8.89434 40.8944C8.35141 40.9586 7.7172 40.6374 7.72357 39.9164L34.7231 34.8697L34.8729 36.7935L8.89434 40.8944ZM34.3569 27.4405C34.2753 28.2042 34.2642 28.9793 34.3238 29.7442L34.5985 33.2701L7.75924 38.2869L7.82707 35.1813C7.84139 34.5255 8.24283 33.9197 8.87437 33.6002L14.7123 30.6474L14.6774 32.2475C14.6678 32.6859 15.0528 33.0498 15.5373 33.0604C15.9104 33.0549 16.3792 32.8309 16.4319 32.2858L16.4872 29.7499L26.5032 24.684L26.4677 26.3085C26.4582 26.7469 26.8432 27.1108 27.3276 27.1214C27.7007 27.1159 28.1696 26.8918 28.2222 26.3468L28.278 23.7864L35.1166 20.3277L34.3569 27.4405ZM41.1777 6.17491L41.5255 4.03953C41.7511 2.65085 44.0764 2.68994 44.2439 4.09938L44.4997 6.25766C43.9564 6.11636 43.3917 6.03558 42.8163 6.02301C42.2539 6.01074 41.705 6.06452 41.1777 6.17491ZM33.3591 61.5664C33.2985 61.4561 33.183 61.1672 33.4212 60.8696C34.1753 59.9276 35.2592 58.7475 36.5164 57.8862L36.675 59.9234C36.7352 60.6952 37.004 61.4083 37.429 62.0206L34.0175 61.946C33.6069 61.937 33.4203 61.6775 33.3591 61.5664ZM55.6452 21.5565C55.6835 21.399 55.6873 21.273 56.0453 21.2102L58.1602 21.2564C58.3347 21.2918 58.4736 21.2948 58.5437 21.6201L58.4956 23.8444C57.8628 23.4888 56.2835 22.6014 55.6299 22.2342L55.6452 21.5565ZM49.7899 61.2245C50.0482 61.7404 49.9014 62.1422 49.1471 62.274L45.7387 62.1996C46.1864 61.611 46.4845 60.9162 46.5804 60.1552L46.8372 58.1158C48.0519 59.0308 49.0799 60.2536 49.7899 61.2245ZM76.0885 36.6715L76.0224 39.6925L56.1176 35.1195C55.6475 35.0114 55.1712 35.2684 55.0539 35.6934C54.9366 36.1184 55.2226 36.5505 55.6928 36.6584L75.9868 41.3208L75.9834 41.4741C75.9776 41.7453 75.8388 41.9967 75.6036 42.1635C75.3682 42.3304 75.0653 42.392 74.7725 42.3326L49.4705 37.1973L49.7108 35.2884L51.7731 35.8118C52.1882 35.8554 52.6261 35.8156 52.8524 35.2619C52.9813 34.8398 52.7072 34.4015 52.2402 34.283L49.9119 33.6921L50.3573 30.1529C50.4582 29.3515 50.4813 28.5368 50.4258 27.7312L49.9563 20.9115L56.1557 24.395L56.0998 26.9556C56.0902 27.3939 56.4751 27.7578 56.9596 27.7685C57.3329 27.763 57.8015 27.539 57.8543 26.9938L57.8898 25.3694L67.6749 30.8677L67.6196 33.4034C67.6101 33.8418 67.9951 34.2058 68.4795 34.2163C68.8528 34.2109 69.3214 33.9869 69.3742 33.4417L69.4091 31.842L75.1116 35.0463C75.7284 35.393 76.1028 36.0157 76.0885 36.6715ZM70.0593 28.2748L70.0147 30.317C69.319 29.9193 67.8575 29.1053 67.1491 28.7063L67.16 28.2108C67.1641 28.015 67.3437 27.8596 67.56 27.8643L69.6739 27.9104C69.8907 27.9152 70.0636 28.0786 70.0593 28.2748Z" fill="white"/>
</svg>
