<svg width="11" height="22" viewBox="0 0 11 22" fill="none" xmlns="http://www.w3.org/2000/svg">
<path d="M9.86396 18.7884L9.56969 19.9913C8.68686 20.3398 7.98165 20.605 7.45652 20.7873C6.93083 20.9702 6.32 21.0612 5.62405 21.0612C4.55529 21.0612 3.72399 20.7994 3.1311 20.2794C2.5382 19.7573 2.24166 19.0957 2.24166 18.2931C2.24166 17.9824 2.26318 17.6628 2.30792 17.3372C2.35303 17.0112 2.42476 16.6441 2.52291 16.2337L3.62621 12.3286C3.72437 11.9547 3.8078 11.6004 3.87462 11.2654C3.94239 10.9324 3.97504 10.626 3.97504 10.3503C3.97504 9.85155 3.87179 9.50272 3.66623 9.3066C3.46067 9.11105 3.06843 9.01176 2.48611 9.01176C2.20089 9.01176 1.90775 9.05744 1.60894 9.14578C1.30881 9.23449 1.05229 9.32019 0.836914 9.39985L1.13195 8.19594C1.85471 7.90166 2.54557 7.64967 3.20641 7.44052C3.86726 7.23081 4.49168 7.12586 5.08231 7.12586C6.1437 7.12586 6.96273 7.38239 7.53788 7.89543C8.11303 8.40886 8.40051 9.07443 8.40051 9.89459C8.40051 10.0643 8.38163 10.3633 8.34105 10.7906C8.30141 11.2189 8.22761 11.6114 8.12001 11.9683L7.02143 15.8577C6.93139 16.1701 6.85042 16.5272 6.78001 16.9291C6.70734 17.3283 6.67261 17.6334 6.67261 17.838C6.67261 18.3544 6.78775 18.707 7.0186 18.8945C7.25115 19.0819 7.6517 19.1751 8.22062 19.1751C8.48772 19.1751 8.79162 19.1278 9.12931 19.0347C9.46606 18.9416 9.71163 18.8599 9.86396 18.7884ZM10.1426 2.45954C10.1426 3.13718 9.88718 3.71592 9.37394 4.19178C8.86203 4.66934 8.24516 4.90831 7.52353 4.90831C6.79964 4.90831 6.18126 4.66934 5.6635 4.19178C5.14667 3.71573 4.88769 3.13718 4.88769 2.45954C4.88769 1.78321 5.14667 1.20353 5.6635 0.721628C6.18032 0.24048 6.79983 0 7.52353 0C8.24497 0 8.86203 0.241046 9.37394 0.721628C9.88756 1.20353 10.1426 1.7834 10.1426 2.45954Z" fill="#969696"/>
</svg>
