<svg width="21" height="21" viewBox="0 0 21 21" fill="none" xmlns="http://www.w3.org/2000/svg">
<path d="M19.4837 14.715L16.6856 11.9169C15.6863 10.9176 13.9874 11.3174 13.5877 12.6165C13.2879 13.5159 12.2886 14.0156 11.3892 13.8157C9.39056 13.316 6.69238 10.7178 6.19272 8.61917C5.89292 7.71974 6.49252 6.72042 7.39191 6.42066C8.69103 6.02093 9.09076 4.32208 8.09143 3.32275L5.29333 0.524645C4.49387 -0.174882 3.29468 -0.174882 2.59515 0.524645L0.696436 2.42336C-1.20228 4.42201 0.896301 9.71843 5.59312 14.4152C10.2899 19.1121 15.5864 21.3106 17.585 19.3119L19.4837 17.4132C20.1833 16.6138 20.1833 15.4146 19.4837 14.715Z" fill="black"/>
</svg>
