<svg width="29" height="29" viewBox="0 0 29 29" fill="none" xmlns="http://www.w3.org/2000/svg">
<path d="M14.5 29C22.5081 29 29 22.5081 29 14.5C29 6.49187 22.5081 0 14.5 0C6.49187 0 0 6.49187 0 14.5C0 22.5081 6.49187 29 14.5 29Z" fill="#039BE5"/>
<path d="M6.63491 14.1858L20.6153 8.79546C21.2642 8.56105 21.8309 8.95376 21.6207 9.93492L21.6219 9.93371L19.2415 21.1483C19.065 21.9433 18.5926 22.1367 17.9316 21.7621L14.3066 19.0905L12.5582 20.7749C12.3648 20.9682 12.2017 21.1313 11.8271 21.1313L12.0845 17.4423L18.8028 11.3728C19.0952 11.1155 18.7376 10.9705 18.3521 11.2266L10.0497 16.4539L6.47058 15.3374C5.69362 15.0909 5.6767 14.5604 6.63491 14.1858Z" fill="white"/>
</svg>
