<svg width="29" height="29" viewBox="0 0 29 29" fill="none" xmlns="http://www.w3.org/2000/svg">
<circle cx="14.5" cy="14.5" r="14.5" fill="#7D3DAF"/>
<path d="M23.7208 9.7584L23.715 9.73555C23.2531 7.86798 21.1704 5.86398 19.2578 5.44706L19.2362 5.44262C16.1426 4.85246 13.0059 4.85246 9.91292 5.44262L9.89071 5.44706C7.97872 5.86398 5.89603 7.86798 5.43342 9.73555L5.42834 9.7584C4.85722 12.3665 4.85722 15.0115 5.42834 17.6196L5.43342 17.6424C5.87629 19.4303 7.80389 21.3422 9.64513 21.868V23.9528C9.64513 24.7073 10.5646 25.0779 11.0875 24.5334L13.1997 22.3378C13.6578 22.3634 14.1162 22.3777 14.5745 22.3777C16.1318 22.3777 17.6897 22.2305 19.2362 21.9354L19.2578 21.931C21.1704 21.5141 23.2531 19.5101 23.715 17.6425L23.7208 17.6196C24.2919 15.0115 24.2919 12.3665 23.7208 9.7584ZM22.0493 17.2414C21.7409 18.4598 20.1595 19.9745 18.903 20.2544C17.2581 20.5671 15.6002 20.7008 13.944 20.655C13.911 20.6541 13.8794 20.6668 13.8564 20.6904C13.6213 20.9317 12.3142 22.2736 12.3142 22.2736L10.6738 23.9571C10.5538 24.0821 10.3432 23.9971 10.3432 23.8245V20.371C10.3432 20.3139 10.3024 20.2655 10.2464 20.2545C10.2461 20.2544 10.2458 20.2544 10.2454 20.2543C8.98897 19.9744 7.40823 18.4597 7.09919 17.2413C6.58518 14.8838 6.58518 12.494 7.09919 10.1365C7.40823 8.91815 8.98897 7.40341 10.2454 7.12356C13.1182 6.57719 16.0309 6.57719 18.903 7.12356C20.1601 7.40341 21.7409 8.91815 22.0493 10.1365C22.5639 12.4941 22.5639 14.8839 22.0493 17.2414Z" fill="white"/>
<path d="M17.3079 18.8355C17.1148 18.7769 16.9307 18.7375 16.7597 18.6666C14.9882 17.9316 13.3579 16.9834 12.0664 15.5299C11.332 14.7034 10.7572 13.7702 10.2713 12.7827C10.0409 12.3143 9.84674 11.8277 9.64881 11.3442C9.46834 10.9033 9.73416 10.4478 10.0141 10.1156C10.2767 9.80382 10.6147 9.56522 10.9807 9.38938C11.2664 9.25212 11.5482 9.33125 11.7569 9.5734C12.2079 10.0969 12.6223 10.6472 12.9578 11.2541C13.1641 11.6273 13.1075 12.0836 12.7336 12.3376C12.6427 12.3994 12.5599 12.4718 12.4752 12.5416C12.401 12.6027 12.3311 12.6644 12.2802 12.7472C12.1872 12.8986 12.1828 13.0772 12.2427 13.2418C12.7037 14.5089 13.4809 15.4942 14.7563 16.0249C14.9604 16.1098 15.1653 16.2087 15.4005 16.1813C15.7942 16.1353 15.9217 15.7034 16.1976 15.4777C16.4673 15.2572 16.812 15.2543 17.1025 15.4381C17.393 15.622 17.6747 15.8194 17.9547 16.019C18.2295 16.2148 18.5032 16.4064 18.7567 16.6296C19.0004 16.8443 19.0844 17.1259 18.9471 17.4173C18.6958 17.9508 18.3302 18.3947 17.8027 18.678C17.6538 18.7579 17.4759 18.7838 17.3079 18.8355C17.1148 18.7768 17.4759 18.7838 17.3079 18.8355Z" fill="white"/>
<path d="M14.5794 8.77928C16.8965 8.8442 18.7997 10.382 19.2076 12.6728C19.277 13.0631 19.3018 13.4622 19.3327 13.8584C19.3457 14.025 19.2513 14.1834 19.0715 14.1855C18.8858 14.1877 18.8022 14.0323 18.7901 13.8658C18.7663 13.536 18.7497 13.2048 18.7043 12.8778C18.4644 11.1517 17.088 9.72367 15.3699 9.41723C15.1113 9.37109 14.8467 9.35897 14.5848 9.3315C14.4193 9.31411 14.2024 9.30408 14.1658 9.09829C14.135 8.92575 14.2806 8.78836 14.4449 8.77954C14.4896 8.77706 14.5345 8.77909 14.5794 8.77928C16.8965 8.8442 14.5345 8.77909 14.5794 8.77928Z" fill="white"/>
<path d="M18.1005 13.3442C18.0967 13.3731 18.0946 13.4411 18.0777 13.5052C18.0162 13.7379 17.6635 13.767 17.5823 13.5322C17.5582 13.4625 17.5546 13.3833 17.5545 13.3083C17.5537 12.8175 17.447 12.3272 17.1995 11.9002C16.9451 11.4613 16.5564 11.0924 16.1005 10.8691C15.8249 10.7342 15.5267 10.6503 15.2246 10.6003C15.0926 10.5784 14.9591 10.5652 14.8264 10.5467C14.6656 10.5244 14.5798 10.4219 14.5874 10.2634C14.5945 10.1149 14.703 10.0081 14.8648 10.0173C15.3966 10.0475 15.9102 10.1624 16.383 10.4127C17.3444 10.9219 17.8935 11.7255 18.0538 12.7986C18.0611 12.8472 18.0727 12.8953 18.0764 12.9441C18.0855 13.0646 18.0912 13.1853 18.1005 13.3442C18.0967 13.3731 18.0912 13.1853 18.1005 13.3442Z" fill="white"/>
<path d="M16.6593 13.2881C16.4654 13.2916 16.3617 13.1843 16.3417 13.0065C16.3278 12.8826 16.3168 12.757 16.2872 12.6364C16.229 12.399 16.1027 12.1789 15.903 12.0334C15.8087 11.9647 15.7018 11.9146 15.5899 11.8823C15.4477 11.8412 15.3 11.8525 15.1581 11.8177C15.004 11.78 14.9188 11.6552 14.943 11.5107C14.9651 11.3791 15.0931 11.2765 15.2368 11.2869C16.1352 11.3517 16.7772 11.8162 16.8689 12.8738C16.8753 12.9484 16.883 13.0273 16.8664 13.0986C16.838 13.2209 16.7475 13.2821 16.6593 13.2881C16.4654 13.2916 16.7475 13.2821 16.6593 13.2881Z" fill="white"/>
</svg>
