<svg width="16" height="23" viewBox="0 0 16 23" fill="none" xmlns="http://www.w3.org/2000/svg">
<path d="M8.08324 0C4.00908 0 0.694336 3.31474 0.694336 7.3889C0.694336 8.61197 1.00012 9.82464 1.58144 10.9002L7.67917 21.9285C7.76035 22.0756 7.91504 22.1667 8.08324 22.1667C8.25144 22.1667 8.40613 22.0756 8.48731 21.9285L14.5873 10.8966C15.1664 9.82464 15.4721 8.61192 15.4721 7.38886C15.4721 3.31474 12.1574 0 8.08324 0ZM8.08324 11.0833C6.04616 11.0833 4.38881 9.42599 4.38881 7.3889C4.38881 5.35182 6.04616 3.69447 8.08324 3.69447C10.1203 3.69447 11.7777 5.35182 11.7777 7.3889C11.7777 9.42599 10.1203 11.0833 8.08324 11.0833Z" fill="black"/>
</svg>
