<svg width="20" height="19" viewBox="0 0 20 19" fill="none" xmlns="http://www.w3.org/2000/svg">
<path d="M0 0.848215C0 0.379759 0.407014 0 0.909091 0H19.0909C19.593 0 20 0.379759 20 0.848215C20 1.31667 19.593 1.69643 19.0909 1.69643H0.909091C0.407014 1.69643 0 1.31667 0 0.848215Z" fill="#333333"/>
<path d="M5.96046e-07 9.33036C5.96046e-07 8.8619 0.407014 8.48214 0.909092 8.48214H19.0909C19.593 8.48214 20 8.8619 20 9.33036C20 9.79881 19.593 10.1786 19.0909 10.1786H0.909092C0.407015 10.1786 5.96046e-07 9.79881 5.96046e-07 9.33036Z" fill="#333333"/>
<path d="M5.96046e-07 18.1518C5.96046e-07 17.6833 0.407014 17.3036 0.909092 17.3036H19.0909C19.593 17.3036 20 17.6833 20 18.1518C20 18.6202 19.593 19 19.0909 19H0.909092C0.407015 19 5.96046e-07 18.6202 5.96046e-07 18.1518Z" fill="#333333"/>
</svg>
