<svg width="53" height="60" viewBox="0 0 53 60" fill="none" xmlns="http://www.w3.org/2000/svg">
<path d="M12.4688 13.5312H33.7812C34.0382 13.5312 34.2846 13.4292 34.4663 13.2475C34.6479 13.0658 34.75 12.8194 34.75 12.5625C34.75 12.3056 34.6479 12.0592 34.4663 11.8775C34.2846 11.6958 34.0382 11.5938 33.7812 11.5938H12.4688C12.2118 11.5938 11.9654 11.6958 11.7837 11.8775C11.6021 12.0592 11.5 12.3056 11.5 12.5625C11.5 12.8194 11.6021 13.0658 11.7837 13.2475C11.9654 13.4292 12.2118 13.5312 12.4688 13.5312Z" fill="white"/>
<path d="M12.4688 19.3438H33.7812C34.0382 19.3438 34.2846 19.2417 34.4663 19.06C34.6479 18.8783 34.75 18.6319 34.75 18.375C34.75 18.1181 34.6479 17.8717 34.4663 17.69C34.2846 17.5083 34.0382 17.4062 33.7812 17.4062H12.4688C12.2118 17.4062 11.9654 17.5083 11.7837 17.69C11.6021 17.8717 11.5 18.1181 11.5 18.375C11.5 18.6319 11.6021 18.8783 11.7837 19.06C11.9654 19.2417 12.2118 19.3438 12.4688 19.3438Z" fill="white"/>
<path d="M12.4688 25.1562H33.7812C34.0382 25.1562 34.2846 25.0542 34.4663 24.8725C34.6479 24.6908 34.75 24.4444 34.75 24.1875C34.75 23.9306 34.6479 23.6842 34.4663 23.5025C34.2846 23.3208 34.0382 23.2188 33.7812 23.2188H12.4688C12.2118 23.2188 11.9654 23.3208 11.7837 23.5025C11.6021 23.6842 11.5 23.9306 11.5 24.1875C11.5 24.4444 11.6021 24.6908 11.7837 24.8725C11.9654 25.0542 12.2118 25.1562 12.4688 25.1562Z" fill="white"/>
<path d="M12.4688 30.9688H33.7812C34.0382 30.9688 34.2846 30.8667 34.4663 30.685C34.6479 30.5033 34.75 30.2569 34.75 30C34.75 29.7431 34.6479 29.4967 34.4663 29.315C34.2846 29.1333 34.0382 29.0312 33.7812 29.0312H12.4688C12.2118 29.0312 11.9654 29.1333 11.7837 29.315C11.6021 29.4967 11.5 29.7431 11.5 30C11.5 30.2569 11.6021 30.5033 11.7837 30.685C11.9654 30.8667 12.2118 30.9688 12.4688 30.9688Z" fill="white"/>
<path d="M12.4688 36.7812H20.2188C20.4757 36.7812 20.7221 36.6792 20.9038 36.4975C21.0854 36.3158 21.1875 36.0694 21.1875 35.8125C21.1875 35.5556 21.0854 35.3092 20.9038 35.1275C20.7221 34.9458 20.4757 34.8438 20.2188 34.8438H12.4688C12.2118 34.8438 11.9654 34.9458 11.7837 35.1275C11.6021 35.3092 11.5 35.5556 11.5 35.8125C11.5 36.0694 11.6021 36.3158 11.7837 36.4975C11.9654 36.6792 12.2118 36.7812 12.4688 36.7812Z" fill="white"/>
<path d="M50.7504 23.826C50.0852 23.4371 49.2929 23.3279 48.5473 23.5225C47.8017 23.7171 47.1638 24.1995 46.7735 24.8639L44.4375 28.8496V4.8125C44.4375 4.55557 44.3354 4.30917 44.1538 4.12749C43.9721 3.94581 43.7257 3.84375 43.4688 3.84375H36.1201C36.1201 3.84375 33.2092 0.879375 33.0927 0.979156C33.0019 0.951574 32.9075 0.937537 32.8125 0.9375H4.71876C4.46183 0.9375 4.21542 1.03956 4.03375 1.22124C3.85207 1.40292 3.75001 1.64932 3.75001 1.90625V4.93517C2.91788 5.14967 2.18066 5.6347 1.65429 6.31396C1.12793 6.99321 0.842285 7.82817 0.842285 8.6875C0.842285 9.54683 1.12793 10.3818 1.65429 11.061C2.18066 11.7403 2.91788 12.2253 3.75001 12.4398V14.6227C2.91788 14.8372 2.18066 15.3222 1.65429 16.0015C1.12793 16.6807 0.842285 17.5157 0.842285 18.375C0.842285 19.2343 1.12793 20.0693 1.65429 20.7485C2.18066 21.4278 2.91788 21.9128 3.75001 22.1273V24.3102C2.91788 24.5247 2.18066 25.0097 1.65429 25.689C1.12793 26.3682 0.842285 27.2032 0.842285 28.0625C0.842285 28.9218 1.12793 29.7568 1.65429 30.436C2.18066 31.1153 2.91788 31.6003 3.75001 31.8148V33.0289C2.91788 33.2434 2.18066 33.7285 1.65429 34.4077C1.12793 35.087 0.842285 35.9219 0.842285 36.7812C0.842285 37.6406 1.12793 38.4755 1.65429 39.1548C2.18066 39.834 2.91788 40.3191 3.75001 40.5336V46.4688C3.75001 46.7257 3.85207 46.9721 4.03375 47.1538C4.21542 47.3354 4.46183 47.4375 4.71876 47.4375H5.68751V50.3438C5.68751 50.6007 5.78957 50.8471 5.97125 51.0288C6.15292 51.2104 6.39933 51.3125 6.65626 51.3125H31.2736L30.6098 52.4452C30.5504 52.5468 30.5101 52.6585 30.491 52.7747C30.4901 52.7803 30.4885 52.785 30.4876 52.7907L30.4852 52.8066V52.8102L29.7102 57.9494C29.6814 58.1409 29.7105 58.3366 29.794 58.5113C29.8774 58.686 30.0113 58.8317 30.1783 58.9296C30.3454 59.0275 30.5379 59.0731 30.7311 59.0605C30.9243 59.0479 31.1093 58.9777 31.2623 58.8589L35.3828 55.6598C35.6468 55.4548 35.7758 55.3293 35.7553 55.161L38.0106 51.3125H43.4688C43.7257 51.3125 43.9721 51.2104 44.1538 51.0288C44.3354 50.8471 44.4375 50.6007 44.4375 50.3438V40.346L51.7879 27.8028C52.1767 27.1376 52.2859 26.3454 52.0914 25.5999C51.8969 24.8544 51.4146 24.2164 50.7504 23.826ZM49.0363 25.396C49.2217 25.3476 49.4173 25.3553 49.5983 25.4181C49.7793 25.4809 49.9377 25.5959 50.0533 25.7487C50.169 25.9014 50.2367 26.0851 50.248 26.2763C50.2593 26.4676 50.2136 26.6579 50.1167 26.8232L49.6269 27.6588L47.9558 26.6791L48.4457 25.8436C48.5097 25.7336 48.5948 25.6375 48.6962 25.5607C48.7975 25.4838 48.9131 25.4279 49.0363 25.396ZM34.4427 53.5687L32.7716 52.5891L45.5063 30.8584L47.1774 31.8381L34.4427 53.5687ZM33.7813 4.24505L37.255 7.71875H33.7813V4.24505ZM46.4859 29.1867L46.9756 28.3512L48.6473 29.3308L48.1575 30.1664L46.4859 29.1867ZM42.5 5.78125V31.9375C42.5001 32.0004 42.5063 32.063 42.5184 32.1247L40.5625 35.4623V8.6875C40.5626 8.56048 40.5377 8.43468 40.4892 8.3173C40.4406 8.19992 40.3694 8.09327 40.2796 8.00344L40.2788 8.00247L38.0576 5.78125H42.5ZM5.68751 2.875H31.8438V8.6875C31.8438 8.94443 31.9458 9.19083 32.1275 9.37251C32.3092 9.55418 32.5556 9.65625 32.8125 9.65625H38.625V38.7684L34.68 45.5H5.68751V40.5337C6.35817 40.361 6.97024 40.0116 7.45992 39.5218C7.94959 39.0321 8.29895 38.42 8.47157 37.7493C8.53561 37.5004 8.49815 37.2362 8.36744 37.0149C8.23672 36.7937 8.02346 36.6334 7.77456 36.5693C7.65131 36.5376 7.52303 36.5305 7.39704 36.5484C7.27104 36.5662 7.1498 36.6087 7.04023 36.6735C6.81895 36.8042 6.65866 37.0175 6.59462 37.2664C6.53043 37.5154 6.41712 37.7492 6.26135 37.9539C6.10557 38.1586 5.91048 38.3301 5.68751 38.4584V31.815C6.35817 31.6422 6.97024 31.2928 7.45992 30.8031C7.94959 30.3133 8.29895 29.7012 8.47157 29.0305C8.53561 28.7816 8.49815 28.5175 8.36744 28.2962C8.23672 28.0749 8.02346 27.9146 7.77456 27.8506C7.52566 27.7865 7.26151 27.824 7.04023 27.9547C6.81895 28.0854 6.65866 28.2987 6.59462 28.5476C6.53043 28.7967 6.41712 29.0305 6.26135 29.2352C6.10557 29.4399 5.91048 29.6114 5.68751 29.7396V22.1275C6.35817 21.9547 6.97024 21.6053 7.45992 21.1156C7.94959 20.6258 8.29895 20.0137 8.47157 19.343C8.53561 19.0941 8.49815 18.83 8.36744 18.6087C8.23672 18.3874 8.02346 18.2271 7.77456 18.1631C7.52566 18.099 7.26151 18.1365 7.04023 18.2672C6.81895 18.3979 6.65866 18.6112 6.59462 18.8601C6.53043 19.1092 6.41712 19.343 6.26135 19.5477C6.10557 19.7524 5.91048 19.9239 5.68751 20.0521V12.44C6.35817 12.2672 6.97024 11.9178 7.45992 11.4281C7.94959 10.9383 8.29895 10.3262 8.47157 9.65552C8.53561 9.40662 8.49815 9.14248 8.36744 8.9212C8.23672 8.69992 8.02346 8.53963 7.77456 8.47559C7.52566 8.41155 7.26151 8.44901 7.04023 8.57972C6.81895 8.71044 6.65866 8.9237 6.59462 9.1726C6.53043 9.42169 6.41712 9.65546 6.26135 9.86016C6.10557 10.0649 5.91048 10.2364 5.68751 10.3646V2.875ZM2.78126 8.6875C2.78171 8.34784 2.87145 8.01426 3.04148 7.72022C3.21151 7.42618 3.45585 7.182 3.75001 7.01217V10.3628C3.45585 10.193 3.21151 9.94882 3.04148 9.65478C2.87145 9.36074 2.78171 9.02716 2.78126 8.6875ZM2.78126 18.375C2.78171 18.0353 2.87145 17.7018 3.04148 17.4077C3.21151 17.1137 3.45585 16.8695 3.75001 16.6997V20.0503C3.45585 19.8805 3.21151 19.6363 3.04148 19.3423C2.87145 19.0482 2.78171 18.7147 2.78126 18.375ZM2.78126 28.0625C2.78171 27.7228 2.87145 27.3893 3.04148 27.0952C3.21151 26.8012 3.45585 26.557 3.75001 26.3872V29.7378C3.45585 29.568 3.21151 29.3238 3.04148 29.0298C2.87145 28.7357 2.78171 28.4022 2.78126 28.0625ZM2.78126 36.7812C2.78171 36.4416 2.87145 36.108 3.04148 35.814C3.21151 35.5199 3.45585 35.2757 3.75001 35.1059V38.4566C3.45585 38.2868 3.21151 38.0426 3.04148 37.7485C2.87145 37.4545 2.78171 37.1209 2.78126 36.7812ZM7.62501 49.375V47.4375H33.5445L32.409 49.375H7.62501ZM32.1902 54.4944L33.0644 55.0067L31.9866 55.8432L32.1902 54.4944ZM42.5 49.375H39.1457L42.5 43.652V49.375Z" fill="white"/>
</svg>
