<svg width="62" height="62" viewBox="0 0 62 62" fill="none" xmlns="http://www.w3.org/2000/svg">
<g clip-path="url(#clip0)">
<path d="M48.6616 35.7608C48.6616 35.7608 40.8391 30.934 40.8293 30.9279C40.2663 30.5805 39.5082 30.7637 39.1618 31.3226C38.8148 31.8826 38.999 32.645 39.5566 32.9888C39.5566 32.9888 47.3841 37.8187 47.3889 37.8216C47.9517 38.1688 48.7092 37.9902 49.0552 37.427C49.4011 36.8637 49.2248 36.1079 48.6616 35.7608Z" fill="white"/>
<path d="M36.072 28.2046C35.2985 28.2045 34.7154 28.9407 34.8922 29.6934C34.9625 29.9933 35.1686 30.2656 35.4401 30.4376C35.6265 30.5556 35.8437 30.6265 36.0693 30.6265C36.493 30.6265 36.8793 30.4122 37.1009 30.0515C37.5729 29.283 36.9796 28.2047 36.072 28.2046Z" fill="white"/>
<path d="M23.5328 31.26C23.1911 30.7159 22.4036 30.5401 21.8626 30.8818C21.8626 30.8818 14.0906 35.7827 14.0775 35.7909C13.5175 36.144 13.3466 36.9006 13.6994 37.4602C13.9114 37.7967 14.3206 37.994 14.7256 38.0054C14.9535 38.0118 15.1801 37.9594 15.3696 37.8398C15.3696 37.8398 23.1493 32.933 23.1547 32.9295C23.7146 32.5764 23.8847 31.8204 23.5328 31.26Z" fill="white"/>
<path d="M26.6032 28.1113C26.0408 28.1113 25.5481 28.5066 25.4237 29.0544C25.2543 29.8007 25.8451 30.5332 26.6056 30.5332C27.1669 30.5332 27.6624 30.1381 27.7862 29.5898C27.9559 28.839 27.3705 28.1113 26.6032 28.1113Z" fill="white"/>
<path d="M61.7029 55.1534C61.2641 54.6487 60.4992 54.5954 59.9945 55.0342C58.7033 56.1569 57.5083 57.3209 55.8141 57.7891C53.9308 58.3096 52.1409 57.8988 50.4364 57.0466L56.7428 35.8281C56.8997 35.3002 56.6805 34.7329 56.2096 34.4475L50.375 30.9122V20.5886C50.375 19.9199 49.8328 19.3776 49.164 19.3776H46.7422V15.7448C46.7422 15.0762 46.2 14.5339 45.5312 14.5339H41.7168V10.9011C41.7168 10.2324 41.1746 9.69017 40.5058 9.69017H34.6328V1.21362C34.6328 0.544942 34.0907 0.00268555 33.4219 0.00268555H28.5781C27.9093 0.00268555 27.3672 0.544942 27.3672 1.21362V9.69017H21.4942C20.8254 9.69017 20.2832 10.2324 20.2832 10.9011V14.5339H16.4688C15.8 14.5339 15.2578 15.0762 15.2578 15.7448V19.3776H12.836C12.1672 19.3776 11.625 19.9199 11.625 20.5886V30.9122L5.79051 34.4474C5.31946 34.7328 5.1004 35.3001 5.25734 35.828C5.25734 35.828 11.5483 56.9939 11.5509 57.0031C11.4435 56.6418 9.50578 56.4038 9.16321 56.3595C5.63733 55.9032 2.9562 57.6695 0.416383 59.8779C-0.0883344 60.3167 -0.141615 61.0814 0.297106 61.5861C0.715969 62.0678 1.49545 62.1487 2.00537 61.7054C4.62196 59.4308 7.57192 57.6968 11.034 59.4281C14.1659 60.994 17.4079 61.6654 20.67 59.9488C23.3004 58.5642 25.8388 57.3687 28.7748 58.7666L31.7933 60.204C34.3757 61.4338 37.3241 61.4055 39.8822 60.1262C41.4586 59.338 43.0608 58.2891 44.8615 58.1654C46.6265 58.0441 48.332 58.7013 49.8828 59.4774C51.9316 60.5019 54.3301 60.7065 56.5302 60.0794C58.5567 59.5016 60.0315 58.211 61.5835 56.8615C62.0883 56.4228 62.1416 55.6581 61.7029 55.1534ZM47.9531 21.7995V29.4448L35.3354 21.7995H47.9531ZM29.7891 2.42456H32.2109V9.69017H29.7891V2.42456ZM22.7051 12.112H39.2949V14.5339H22.7051V12.112ZM14.0469 21.7995H26.6646L14.0469 29.4448V21.7995ZM29.7891 56.5673C29.7893 56.3521 28.0629 55.9552 27.837 55.9062C25.7295 55.4501 23.467 55.7397 21.5564 56.7454C20.1701 57.475 18.8326 58.3262 17.2472 58.5303C17.2443 58.5307 17.2414 58.5311 17.2385 58.5314C16.3121 58.644 15.3639 58.5759 14.4673 58.3144L7.84511 36.0343L29.7891 22.7382C29.7891 22.7382 29.7891 56.566 29.7891 56.5673ZM17.6797 19.3776V16.9558H44.3203V19.3776H17.6797ZM48.198 56.0761C48.2114 55.7015 44.8026 55.7049 44.5742 55.729C42.4723 55.9513 40.6539 57.0328 38.799 57.9602C36.6077 59.0559 34.353 58.7409 32.2109 57.7205V22.7382L54.1549 36.0343L48.198 56.0761Z" fill="white"/>
</g>
<defs>
<clipPath id="clip0">
<rect width="62" height="62" fill="white"/>
</clipPath>
</defs>
</svg>
