<svg width="22" height="22" viewBox="0 0 22 22" fill="none" xmlns="http://www.w3.org/2000/svg">
<g clip-path="url(#clip0)">
<path d="M18.8701 17.3677L17.9296 5.51628C17.8713 4.75269 17.2252 4.15479 16.4596 4.15479H14.6017V6.90743C14.6017 7.24832 14.3258 7.52425 13.9849 7.52425C13.6444 7.52425 13.3681 7.24832 13.3681 6.90743V4.15479H7.69346V6.90743C7.69346 7.24832 7.41711 7.52425 7.07664 7.52425C6.73575 7.52425 6.45982 7.24832 6.45982 6.90743V4.15479H4.60198C3.83634 4.15479 3.19031 4.75269 3.13194 5.51463L2.19109 17.3693C2.11832 18.3188 2.44769 19.2638 3.0945 19.962C3.74135 20.6602 4.65834 21.0611 5.61029 21.0611H15.4513C16.4033 21.0611 17.3202 20.6602 17.9671 19.962C18.6139 19.2637 18.9433 18.3188 18.8701 17.3677ZM13.3097 11.3324L10.1196 14.5225C9.99909 14.643 9.84117 14.7035 9.68329 14.7035C9.52537 14.7035 9.3675 14.643 9.24701 14.5225L7.75187 13.0274C7.5109 12.7864 7.5109 12.3962 7.75187 12.1552C7.99284 11.9142 8.3835 11.9142 8.62406 12.1552L9.68333 13.2141L12.4376 10.4598C12.6781 10.2193 13.0688 10.2193 13.3098 10.4598C13.5507 10.7008 13.5507 11.0914 13.3097 11.3324Z" fill="#969696"/>
<path d="M10.5304 -0.000244141C8.28563 -0.000244141 6.45947 1.82632 6.45947 4.07111V4.15458H7.69312V4.07111C7.69312 2.50645 8.9658 1.23336 10.5305 1.23336C12.0951 1.23336 13.3678 2.50645 13.3678 4.07111V4.15458H14.6014V4.07111C14.6014 1.82632 12.7752 -0.000244141 10.5304 -0.000244141Z" fill="#969696"/>
</g>
<defs>
<clipPath id="clip0">
<rect width="21.0612" height="21.0612" fill="white"/>
</clipPath>
</defs>
</svg>
