<svg width="22" height="22" viewBox="0 0 22 22" fill="none" xmlns="http://www.w3.org/2000/svg">
<g clip-path="url(#clip0)">
<path d="M6.82844 13.6159H17.9762C18.2523 13.6159 18.4945 13.4333 18.5692 13.1682L21.0374 4.52965C21.0905 4.34341 21.0542 4.14336 20.9373 3.98862C20.8204 3.83437 20.6385 3.74326 20.4444 3.74326H5.40398L4.9629 1.75849C4.90023 1.47584 4.64956 1.27515 4.36033 1.27515H0.617028C0.276056 1.27515 0 1.5512 0 1.89217C0 2.23331 0.276056 2.5092 0.617028 2.5092H3.8651L6.09331 12.5359C5.43772 12.821 4.97736 13.4735 4.97736 14.2329C4.97736 15.2536 5.80778 16.084 6.82844 16.084H17.9762C18.3174 16.084 18.5933 15.8081 18.5933 15.467C18.5933 15.126 18.3174 14.8499 17.9762 14.8499H6.82844C6.4886 14.8499 6.21142 14.5734 6.21142 14.2329C6.21142 13.8924 6.4886 13.6159 6.82844 13.6159Z" fill="#969696"/>
<path d="M6.21143 17.9354C6.21143 18.9563 7.04184 19.7865 8.06267 19.7865C9.08334 19.7865 9.91376 18.9563 9.91376 17.9354C9.91376 16.9148 9.08334 16.0844 8.06267 16.0844C7.04184 16.0844 6.21143 16.9148 6.21143 17.9354Z" fill="#969696"/>
<path d="M14.8911 17.9354C14.8911 18.9563 15.7215 19.7865 16.7422 19.7865C17.763 19.7865 18.5933 18.9563 18.5933 17.9354C18.5933 16.9148 17.763 16.0844 16.7422 16.0844C15.7215 16.0844 14.8911 16.9148 14.8911 17.9354Z" fill="#969696"/>
</g>
<defs>
<clipPath id="clip0">
<rect width="21.0612" height="21.0612" fill="white"/>
</clipPath>
</defs>
</svg>
