<svg width="59" height="59" viewBox="0 0 59 59" fill="none" xmlns="http://www.w3.org/2000/svg">
<path d="M40.5627 24.5833H18.4377C17.7592 24.5833 17.2085 24.0327 17.2085 23.3542V1.22917C17.2085 0.550667 17.7592 0 18.4377 0H40.5627C41.2412 0 41.7918 0.550667 41.7918 1.22917V23.3542C41.7918 24.0327 41.2412 24.5833 40.5627 24.5833ZM19.6668 22.125H39.3335V2.45833H19.6668V22.125Z" fill="white"/>
<path d="M33.1877 9.83333H25.8127C25.1342 9.83333 24.5835 9.28267 24.5835 8.60417V1.22917C24.5835 0.550667 25.1342 0 25.8127 0H33.1877C33.8662 0 34.4168 0.550667 34.4168 1.22917V8.60417C34.4168 9.28267 33.8662 9.83333 33.1877 9.83333ZM27.0418 7.375H31.9585V2.45833H27.0418V7.375Z" fill="white"/>
<path d="M29.4998 46.7083H6.14567C5.46717 46.7083 4.9165 46.1577 4.9165 45.4792V23.3542C4.9165 22.6757 5.46717 22.125 6.14567 22.125H29.4998C30.1783 22.125 30.729 22.6757 30.729 23.3542V45.4792C30.729 46.1577 30.1783 46.7083 29.4998 46.7083ZM7.37484 44.25H28.2707V24.5833H7.37484V44.25Z" fill="white"/>
<path d="M20.8957 31.9583H13.5207C12.8422 31.9583 12.2915 31.4077 12.2915 30.7292V23.3542C12.2915 22.6757 12.8422 22.125 13.5207 22.125H20.8957C21.5742 22.125 22.1248 22.6757 22.1248 23.3542V30.7292C22.1248 31.4077 21.5742 31.9583 20.8957 31.9583ZM14.7498 29.5H19.6665V24.5833H14.7498V29.5Z" fill="white"/>
<path d="M52.8543 46.7083H29.5002C28.8217 46.7083 28.271 46.1577 28.271 45.4792V23.3542C28.271 22.6757 28.8217 22.125 29.5002 22.125H52.8543C53.5328 22.125 54.0835 22.6757 54.0835 23.3542V45.4792C54.0835 46.1577 53.5328 46.7083 52.8543 46.7083ZM30.7293 44.25H51.6252V24.5833H30.7293V44.25Z" fill="white"/>
<path d="M45.4792 31.9583H38.1042C37.4257 31.9583 36.875 31.4077 36.875 30.7292V23.3542C36.875 22.6757 37.4257 22.125 38.1042 22.125H45.4792C46.1577 22.125 46.7083 22.6757 46.7083 23.3542V30.7292C46.7083 31.4077 46.1577 31.9583 45.4792 31.9583ZM39.3333 29.5H44.25V24.5833H39.3333V29.5Z" fill="white"/>
<path d="M57.7708 59H47.9375C47.259 59 46.7083 58.4493 46.7083 57.7708V54.0833H36.875V57.7708C36.875 58.4493 36.3243 59 35.6458 59H23.3542C22.6757 59 22.125 58.4493 22.125 57.7708V54.0833H12.2917V57.7708C12.2917 58.4493 11.741 59 11.0625 59H1.22917C0.550667 59 0 58.4493 0 57.7708V45.4792C0 44.8007 0.550667 44.25 1.22917 44.25H57.7708C58.4493 44.25 59 44.8007 59 45.4792V57.7708C59 58.4493 58.4493 59 57.7708 59ZM49.1667 56.5417H56.5417V46.7083H2.45833V56.5417H9.83333V52.8542C9.83333 52.1757 10.384 51.625 11.0625 51.625H23.3542C24.0327 51.625 24.5833 52.1757 24.5833 52.8542V56.5417H34.4167V52.8542C34.4167 52.1757 34.9673 51.625 35.6458 51.625H47.9375C48.616 51.625 49.1667 52.1757 49.1667 52.8542V56.5417Z" fill="white"/>
</svg>
