<svg aria-hidden="true" style="position: absolute; width: 0; height: 0; overflow: hidden;" version="1.1" xmlns="http://www.w3.org/2000/svg" xmlns:xlink="http://www.w3.org/1999/xlink">
<defs>
<symbol id="star" viewBox="0 0 32 32">
<path fill="#ffb800" style="fill: var(--color1, #ffb800)" d="M15.835 0.888l3.573 11.005h11.573l-9.36 6.803 3.573 11.008-9.36-6.803-9.363 6.8 3.573-11.005-9.36-6.8h11.573l3.571-11.011z"></path>
</symbol>
<symbol id="contact-icon" viewBox="0 0 47 32">
<path d="M5.513 4.881c0 1.213-0.983 2.196-2.196 2.196s-2.196-0.983-2.196-2.196c0-1.213 0.983-2.196 2.196-2.196s2.196 0.983 2.196 2.196z"></path>
<path d="M5.513 12.94c0 1.213-0.983 2.196-2.196 2.196s-2.196-0.983-2.196-2.196c0-1.213 0.983-2.196 2.196-2.196s2.196 0.983 2.196 2.196z"></path>
<path d="M5.513 20.995c0 1.213-0.983 2.196-2.196 2.196s-2.196-0.983-2.196-2.196c0-1.213 0.983-2.196 2.196-2.196s2.196 0.983 2.196 2.196z"></path>
<path d="M5.513 29.050c0 1.213-0.983 2.196-2.196 2.196s-2.196-0.983-2.196-2.196c0-1.213 0.983-2.196 2.196-2.196s2.196 0.983 2.196 2.196z"></path>
<path d="M11.188 2.685h32.224c1.112 0 2.013 0.901 2.013 2.013v0.003c0 1.112-0.901 2.013-2.013 2.013h-32.224c-1.112 0-2.013-0.901-2.013-2.013v-0.003c0-1.112 0.901-2.013 2.013-2.013z"></path>
<path d="M11.188 10.74h32.224c1.112 0 2.013 0.901 2.013 2.013v0.003c0 1.112-0.901 2.013-2.013 2.013h-32.224c-1.112 0-2.013-0.901-2.013-2.013v-0.003c0-1.112 0.901-2.013 2.013-2.013z"></path>
<path d="M11.188 18.799h32.224c1.112 0 2.013 0.901 2.013 2.013v0.003c0 1.112-0.901 2.013-2.013 2.013h-32.224c-1.112 0-2.013-0.901-2.013-2.013v-0.003c0-1.112 0.901-2.013 2.013-2.013z"></path>
<path d="M11.188 26.854h32.224c1.112 0 2.013 0.901 2.013 2.013v0.003c0 1.112-0.901 2.013-2.013 2.013h-32.224c-1.112 0-2.013-0.901-2.013-2.013v-0.003c0-1.112 0.901-2.013 2.013-2.013z"></path>
</symbol>
<symbol id="map-position" viewBox="0 0 22 32">
<path d="M11.246 0c-5.667 0-10.28 4.612-10.28 10.28 0 1.702 0.426 3.389 1.234 4.885l8.486 15.343c0.111 0.2 0.321 0.332 0.562 0.332s0.451-0.133 0.56-0.329l0.002-0.003 8.487-15.347c0.775-1.411 1.231-3.093 1.231-4.881v-0c-0.001-5.668-4.614-10.28-10.282-10.28zM11.246 15.42c-2.836-0.005-5.133-2.302-5.138-5.138v-0c0.003-2.837 2.302-5.137 5.139-5.141h0c2.838 0.003 5.138 2.303 5.141 5.141v0c-0.004 2.837-2.303 5.136-5.141 5.139h-0z"></path>
</symbol>
<symbol id="footer-phone" viewBox="0 0 32 32">
<path d="M29.69 22.423l-4.264-4.264c-1.524-1.524-4.113-0.914-4.721 1.067-0.457 1.37-1.981 2.132-3.351 1.827-3.045-0.762-7.157-4.721-7.918-7.919-0.457-1.371 0.457-2.894 1.827-3.349 1.979-0.61 2.589-3.198 1.067-4.721l-4.267-4.264c-1.219-1.067-3.045-1.067-4.111 0l-2.892 2.892c-2.892 3.046 0.305 11.116 7.462 18.274s15.227 10.508 18.274 7.462l2.894-2.894c1.067-1.219 1.067-3.045 0-4.111z"></path>
</symbol>
<symbol id="footer-viber" viewBox="0 0 32 32">
<path fill="#7d3daf" style="fill: var(--color2, #7d3daf)" d="M32 16c0 8.837-7.163 16-16 16s-16-7.163-16-16c0-8.837 7.163-16 16-16s16 7.163 16 16z"></path>
<path fill="#fff" style="fill: var(--color3, #fff)" d="M26.174 10.767l-0.006-0.024c-0.51-2.061-2.808-4.273-4.918-4.733l-0.024-0.004c-1.547-0.311-3.324-0.488-5.144-0.488s-3.597 0.178-5.317 0.517l0.173-0.029-0.024 0.004c-2.11 0.46-4.408 2.671-4.919 4.733l-0.006 0.024c-0.301 1.304-0.473 2.8-0.473 4.338s0.172 3.034 0.498 4.473l-0.026-0.135 0.006 0.024c0.489 1.973 2.615 4.083 4.648 4.663v2.301c0 0.832 1.015 1.241 1.592 0.64l2.33-2.422c0.455 0.027 0.987 0.042 1.523 0.042 1.818 0 3.594-0.177 5.313-0.514l-0.174 0.028 0.022-0.006c2.111-0.46 4.409-2.67 4.919-4.733l0.007-0.024c0.3-1.304 0.473-2.8 0.473-4.338s-0.172-3.034-0.498-4.473l0.026 0.135zM24.331 19.025c-0.342 1.345-2.086 3.016-3.473 3.325-1.437 0.287-3.088 0.452-4.778 0.452-0.244 0-0.487-0.003-0.729-0.010l0.036 0.001c-0.001-0-0.003-0-0.005-0-0.036 0-0.069 0.015-0.092 0.039l-0 0-3.511 3.605c-0.039 0.040-0.093 0.065-0.152 0.065-0.117 0-0.212-0.095-0.212-0.211v-3.81c-0.001-0.064-0.047-0.117-0.107-0.128l-0.001-0c-1.387-0.309-3.132-1.981-3.473-3.326-0.27-1.178-0.425-2.531-0.425-3.919s0.155-2.742 0.449-4.042l-0.023 0.122c0.342-1.345 2.086-3.017 3.471-3.325 1.436-0.288 3.087-0.452 4.777-0.452s3.341 0.165 4.938 0.479l-0.161-0.026c1.387 0.309 3.132 1.98 3.471 3.325 0.271 1.178 0.426 2.531 0.426 3.919s-0.155 2.741-0.449 4.042l0.023-0.122z"></path>
<path fill="#fff" style="fill: var(--color3, #fff)" d="M19.098 20.783c-0.213-0.064-0.416-0.108-0.605-0.185-1.955-0.811-3.754-1.858-5.18-3.462-0.81-0.913-1.444-1.942-1.981-3.031-0.254-0.518-0.468-1.054-0.686-1.588-0.199-0.486 0.094-0.989 0.403-1.355 0.29-0.344 0.662-0.607 1.067-0.802 0.314-0.151 0.626-0.064 0.856 0.203 0.483 0.545 0.922 1.153 1.296 1.801l0.028 0.053c0.228 0.412 0.166 0.916-0.246 1.196-0.1 0.067-0.192 0.148-0.286 0.225-0.084 0.063-0.155 0.138-0.213 0.223l-0.002 0.003c-0.054 0.090-0.086 0.199-0.086 0.315 0 0.083 0.016 0.163 0.046 0.236l-0.002-0.004c0.508 1.398 1.366 2.485 2.773 3.071 0.225 0.094 0.452 0.203 0.711 0.172 0.435-0.051 0.576-0.527 0.881-0.776 0.298-0.243 0.678-0.247 0.998-0.044 0.321 0.203 0.632 0.42 0.941 0.641 0.303 0.216 0.605 0.427 0.885 0.673 0.268 0.237 0.361 0.548 0.21 0.87-0.277 0.589-0.681 1.079-1.262 1.391-0.166 0.088-0.361 0.117-0.546 0.173-0.213-0.064 0.185-0.056 0 0zM16.088 9.688c2.556 0.071 4.657 1.768 5.107 4.296 0.076 0.43 0.104 0.872 0.138 1.308 0.014 0.184-0.090 0.359-0.288 0.361-0.205 0.003-0.298-0.169-0.311-0.353-0.026-0.363-0.044-0.728-0.095-1.089-0.265-1.905-1.783-3.48-3.679-3.818-0.286-0.052-0.577-0.065-0.866-0.095-0.183-0.020-0.423-0.031-0.463-0.258-0.033-0.19 0.128-0.342 0.309-0.351 0.050-0.003 0.099 0 0.148 0 2.557 0.071-0.050 0 0 0z"></path>
<path fill="#fff" style="fill: var(--color3, #fff)" d="M19.972 14.724c-0.003 0.033-0.006 0.107-0.024 0.178-0.068 0.257-0.458 0.289-0.547 0.030-0.019-0.064-0.030-0.138-0.030-0.215 0-0.011 0-0.023 0.001-0.034l-0 0.002c0-0.013 0-0.027 0-0.042 0-0.555-0.145-1.076-0.4-1.527l0.008 0.016c-0.288-0.49-0.702-0.879-1.197-1.129l-0.017-0.008c-0.28-0.137-0.604-0.241-0.946-0.295l-0.020-0.003c-0.146-0.024-0.294-0.039-0.44-0.058-0.177-0.025-0.271-0.138-0.264-0.313 0.002-0.151 0.124-0.273 0.276-0.273 0.011 0 0.022 0.001 0.032 0.002l-0.001-0c0.587 0.033 1.153 0.16 1.675 0.437 1.060 0.562 1.666 1.449 1.843 2.633 0.009 0.053 0.022 0.106 0.025 0.16 0.011 0.132 0.017 0.266 0.026 0.441-0.003 0.033-0.010-0.175 0 0z"></path>
<path fill="#fff" style="fill: var(--color3, #fff)" d="M18.383 14.663c-0.215 0.004-0.329-0.115-0.351-0.31-0.015-0.137-0.028-0.276-0.061-0.408-0.061-0.273-0.213-0.504-0.421-0.665l-0.003-0.002c-0.099-0.071-0.214-0.128-0.338-0.164l-0.008-0.002c-0.157-0.046-0.32-0.033-0.477-0.072-0.17-0.042-0.265-0.18-0.237-0.339 0.029-0.142 0.153-0.248 0.302-0.248 0.008 0 0.016 0 0.023 0.001l-0.001-0c0.991 0.072 1.699 0.585 1.801 1.751 0.007 0.082 0.015 0.169-0.003 0.248-0.021 0.113-0.113 0.199-0.227 0.21l-0.001 0c-0.214 0.003 0.097-0.008 0 0z"></path>
</symbol>
<symbol id="footer-telegram" viewBox="0 0 32 32">
<path fill="#039be5" style="fill: var(--color4, #039be5)" d="M16 32c8.836 0 16-7.164 16-16s-7.164-16-16-16-16 7.164-16 16 7.164 16 16 16z"></path>
<path fill="#fff" style="fill: var(--color3, #fff)" d="M7.321 15.654l15.426-5.948c0.717-0.259 1.342 0.174 1.11 1.257v-0.001l-2.626 12.374c-0.194 0.877-0.715 1.091-1.446 0.678l-3.999-2.948-1.93 1.859c-0.213 0.213-0.393 0.393-0.806 0.393l0.284-4.071 7.413-6.698c0.322-0.282-0.072-0.444-0.497-0.16l-9.162 5.768-3.95-1.233c-0.856-0.271-0.875-0.857 0.182-1.27z"></path>
</symbol>
<symbol id="shopping-cart" viewBox="0 0 32 32">
<path fill="#969696" style="fill: var(--color5, #969696)" d="M9.932 19.805h16.215c0 0 0.001 0 0.002 0 0.408 0 0.751-0.273 0.859-0.645l0.002-0.006 3.59-12.564c0.022-0.074 0.035-0.16 0.035-0.249 0-0.495-0.401-0.896-0.896-0.896-0.001 0-0.001 0-0.002 0h-21.876l-0.641-2.887c-0.092-0.405-0.449-0.703-0.876-0.703-0 0-0.001 0-0.001 0h-5.444c-0.496 0-0.897 0.402-0.897 0.897s0.402 0.897 0.897 0.897v0h4.724l3.241 14.585c-0.962 0.424-1.622 1.369-1.623 2.468v0c0 1.484 1.207 2.692 2.692 2.692h16.215c0.496 0 0.897-0.402 0.897-0.897s-0.402-0.897-0.897-0.897v0h-16.215c-0.474-0.028-0.848-0.419-0.848-0.897s0.374-0.87 0.845-0.897l0.002-0zM9.034 26.087c0 1.485 1.207 2.694 2.694 2.694 1.488 0 2.694-1.206 2.694-2.694s-1.206-2.694-2.694-2.694c-1.488 0-2.694 1.206-2.694 2.694v0zM21.66 26.087c0 1.485 1.207 2.694 2.692 2.694s2.692-1.207 2.692-2.694c-0.049-1.449-1.236-2.605-2.692-2.605s-2.643 1.156-2.692 2.601l-0 0.005z"></path>
</symbol>
<symbol id="footer-info-icon" viewBox="0 0 16 32">
<path fill="#969696" style="fill: var(--color5, #969696)" d="M9.864 18.788l-.294 1.203a55.55 55.55 0 01-2.113.796c-.526.183-1.137.274-1.833.274-1.069 0-1.9-.262-2.493-.782-.593-.522-.89-1.183-.89-1.986a7 7 0 01.067-.956c.045-.326.117-.693.215-1.103l1.103-3.905c.098-.374.182-.729.249-1.064.067-.333.1-.639.1-.915 0-.498-.103-.847-.309-1.043-.205-.196-.598-.295-1.18-.295a3.07 3.07 0 00-.877.134c-.3.088-.557.174-.772.254l.295-1.204a27.615 27.615 0 012.074-.755 6.205 6.205 0 011.876-.315c1.062 0 1.88.256 2.456.77.575.513.863 1.178.863 1.999 0 .17-.02.468-.06.896-.04.428-.113.82-.221 1.177l-1.099 3.89c-.09.312-.17.67-.241 1.071-.073.4-.107.704-.107.909 0 .516.115.869.346 1.056.232.188.633.281 1.202.281.267 0 .57-.047.908-.14.337-.093.583-.175.735-.247zm.279-16.328c0 .677-.256 1.256-.77 1.732-.511.477-1.128.716-1.85.716a2.645 2.645 0 01-1.86-.716c-.516-.476-.775-1.055-.775-1.732s.259-1.256.776-1.738A2.633 2.633 0 017.524 0c.721 0 1.338.241 1.85.722.514.482.769 1.061.769 1.738z"></path>
</symbol>
<symbol id="shopping-bag" viewBox="0 0 32 32">
<path fill="#969696" style="fill: var(--color5, #969696)" d="M27.447 25.263l-1.367-17.239c-0.092-1.109-1.013-1.976-2.138-1.98h-2.703v4.003c0 0.496-0.402 0.897-0.897 0.897s-0.897-0.402-0.897-0.897v0-4.003h-8.255v4.003c0 0.011 0.001 0.023 0.001 0.036 0 0.496-0.402 0.897-0.897 0.897s-0.897-0.402-0.897-0.897c0-0.013 0-0.025 0.001-0.038l-0 0.002v-4.003h-2.703c-1.124 0.004-2.045 0.869-2.138 1.97l-0.001 0.008-1.367 17.242c-0.009 0.113-0.014 0.245-0.014 0.378 0 1.311 0.504 2.504 1.329 3.397l-0.003-0.003c0.915 0.984 2.215 1.598 3.659 1.6h14.315c1.444-0.002 2.745-0.616 3.657-1.597l0.003-0.003c0.823-0.889 1.328-2.083 1.328-3.395 0-0.133-0.005-0.265-0.015-0.396l0.001 0.017zM19.36 16.483l-4.64 4.64c-0.162 0.163-0.387 0.264-0.635 0.264s-0.473-0.101-0.635-0.264l-2.175-2.175c-0.176-0.164-0.286-0.398-0.286-0.657 0-0.496 0.402-0.897 0.897-0.897 0.259 0 0.493 0.11 0.657 0.286l0.001 0.001 1.542 1.542 4.006-4.007c0.16-0.149 0.375-0.24 0.611-0.24 0.496 0 0.897 0.402 0.897 0.897 0 0.236-0.091 0.452-0.241 0.612l0-0.001zM15.316 0c-3.268 0.005-5.915 2.652-5.92 5.92v0.123h1.793v-0.122c0.002-2.279 1.849-4.126 4.128-4.128h0c2.279 0.002 4.125 1.849 4.127 4.128v0.122h1.792v-0.122c-0.005-3.267-2.652-5.914-5.918-5.92h-0.001z"></path>
</symbol>
<symbol id="user" viewBox="0 0 32 32">
<path d="M15.73 31.459c-4.814-0-9.123-2.162-12.009-5.568l-0.019-0.023c-2.302-2.719-3.701-6.265-3.702-10.138v-0c0-4.202 1.636-8.151 4.607-11.123 2.831-2.846 6.75-4.607 11.080-4.607 0.015 0 0.030 0 0.045 0h-0.002c4.202 0 8.151 1.636 11.123 4.607 2.846 2.831 4.607 6.749 4.607 11.079 0 0.015-0 0.031-0 0.046v-0.002c-0.002 4.798-2.15 9.094-5.536 11.981l-0.022 0.018c-2.724 2.319-6.283 3.73-10.171 3.731h-0zM15.73 1.966c-7.59 0-13.763 6.174-13.763 13.763 0.001 4.199 1.881 7.958 4.845 10.483l0.019 0.016c2.383 2.029 5.497 3.263 8.899 3.263 4.213 0 7.983-1.892 10.508-4.873l0.017-0.020c2.014-2.378 3.238-5.481 3.239-8.869v-0c0-7.59-6.174-13.763-13.763-13.763z"></path>
<path d="M15.73 15.73c-3.256-0.004-5.895-2.643-5.899-5.899v-0c0.004-3.256 2.643-5.894 5.899-5.898h0c3.256 0.004 5.894 2.642 5.898 5.897v0c-0.004 3.256-2.642 5.895-5.898 5.899h-0zM15.73 5.898c-2.172 0.002-3.932 1.762-3.934 3.934v0c0.002 2.171 1.762 3.93 3.932 3.933h0c2.171-0.002 3.93-1.762 3.933-3.932v-0c-0.003-2.17-1.762-3.929-3.932-3.932h-0z"></path>
<path d="M25.266 27.961c-0.543-0-0.983-0.441-0.983-0.984 0-0.084 0.011-0.166 0.030-0.244l-0.001 0.007c0.177-0.703 0.266-1.431 0.266-2.163 0-4.81-3.911-8.778-8.717-8.846l-0.13-0.001h-0.129c-4.808 0.070-8.719 4.039-8.719 8.847 0 0.732 0.090 1.46 0.267 2.163 0.019 0.072 0.029 0.154 0.029 0.239 0 0.543-0.44 0.983-0.983 0.983-0.458 0-0.843-0.313-0.952-0.738l-0.002-0.007c-0.206-0.791-0.324-1.698-0.324-2.634 0-0.002 0-0.005 0-0.007v0c-0-0.007-0-0.016-0-0.025 0-2.953 1.191-5.628 3.118-7.571l-0.001 0.001c1.923-1.957 4.587-3.181 7.536-3.216l0.007-0h0.292c2.962 0.032 5.631 1.257 7.556 3.216l0.002 0.002c1.927 1.942 3.117 4.617 3.117 7.57 0 0.009 0 0.018-0 0.027v-0.001c0 0.001 0 0.003 0 0.005 0 0.936-0.118 1.844-0.341 2.711l0.016-0.075c-0.11 0.431-0.495 0.745-0.953 0.745h-0z"></path>
</symbol>
<symbol id="mobile-menu" viewBox="0 0 34 32">
<path d="M0 1.428c0-0.788 0.685-1.428 1.533-1.428h30.619c0.847 0 1.533 0.64 1.533 1.428 0 0.79-0.685 1.428-1.533 1.428h-30.619c-0.847 0-1.533-0.64-1.533-1.428zM0 15.714c0-0.788 0.685-1.428 1.533-1.428h30.619c0.847 0 1.533 0.64 1.533 1.428 0 0.79-0.685 1.43-1.533 1.43h-30.619c-0.847 0-1.533-0.64-1.533-1.43zM0 30.572c0-0.79 0.685-1.428 1.533-1.428h30.619c0.847 0 1.533 0.64 1.533 1.428s-0.685 1.428-1.533 1.428h-30.619c-0.847 0-1.533-0.64-1.533-1.428z"></path>
</symbol>
<symbol id="konvert" viewBox="0 0 76 32">
<path d="M73.288 2.856h-70.576l35.288 29.064 35.684-28.98c-0.114-0.034-0.249-0.062-0.388-0.079l-0.012-0.001z"></path>
<path d="M39.712 33.532c-0.464 0.382-1.065 0.614-1.72 0.614s-1.256-0.232-1.725-0.618l0.005 0.004-36.272-29.88v46.776c0 1.5 1.216 2.712 2.716 2.712h70.564c0 0 0 0 0 0 1.499 0 2.714-1.214 2.716-2.712v-46.376l-36.288 29.48z"></path>
</symbol>
<symbol id="lines" viewBox="0 0 954 32">
<path d="M39.712 33.532c-0.464 0.382-1.065 0.614-1.72 0.614s-1.256-0.232-1.725-0.618l0.005 0.004-36.272-29.88v46.776c0 1.5 1.216 2.712 2.716 2.712h70.564c0 0 0 0 0 0 1.499 0 2.714-1.214 2.716-2.712v-46.376l-36.288 29.48z"></path>
</symbol>
<symbol id="stack" viewBox="0 0 32 32">
<path fill="#fff" style="fill: var(--color3, #fff)" d="M22 13.333h-12c-0.368 0-0.667-0.298-0.667-0.667v-11.999c0-0.368 0.299-0.667 0.667-0.667h12c0.368 0 0.667 0.298 0.667 0.667v11.999c0 0.368-0.298 0.667-0.667 0.667zM10.667 12h10.666v-10.667h-10.666v10.667z"></path>
<path fill="#fff" style="fill: var(--color3, #fff)" d="M18 5.333h-4c-0.368 0-0.667-0.298-0.667-0.667v-4c0-0.368 0.299-0.667 0.667-0.667h4c0.368 0 0.667 0.298 0.667 0.667v3.999c0 0.368-0.298 0.667-0.667 0.667zM14.667 4h2.666v-2.667h-2.666v2.667zM16 25.333h-12.667c-0.368 0-0.667-0.298-0.667-0.667v-12c0-0.368 0.299-0.667 0.667-0.667h12.667c0.368 0 0.667 0.298 0.667 0.667v11.999c0 0.368-0.298 0.667-0.667 0.667zM4 24h11.333v-10.667h-11.333v10.667z"></path>
<path fill="#fff" style="fill: var(--color3, #fff)" d="M11.333 17.333h-4.001c-0.368 0-0.667-0.298-0.667-0.667v-4c0-0.368 0.299-0.667 0.667-0.667h4c0.368 0 0.667 0.298 0.667 0.667v3.999c0 0.368-0.298 0.667-0.667 0.667zM8 16h2.666v-2.667h-2.666v2.667zM28.667 25.333h-12.667c-0.368-0-0.666-0.299-0.667-0.667v-12c0-0.368 0.298-0.667 0.667-0.667h12.666c0.368 0 0.667 0.298 0.667 0.667v11.999c0 0.368-0.299 0.667-0.667 0.667zM16.667 24h11.333v-10.667h-11.333v10.667z"></path>
<path fill="#fff" style="fill: var(--color3, #fff)" d="M24.667 17.333h-4.001c-0.368-0-0.666-0.299-0.667-0.667v-4c0-0.368 0.298-0.667 0.667-0.667h3.999c0.368 0 0.667 0.298 0.667 0.667v3.999c0 0.368-0.299 0.667-0.667 0.667zM21.333 16h2.667v-2.667h-2.667v2.667zM31.333 32h-5.333c-0.368-0-0.667-0.299-0.667-0.667v0-2h-5.333v2c0 0.368-0.298 0.667-0.667 0.667h-6.666c-0.368 0-0.667-0.299-0.667-0.667v0-2h-5.333v2c0 0.368-0.299 0.667-0.667 0.667h-5.333c-0.368 0-0.667-0.299-0.667-0.667v-6.666c0-0.369 0.298-0.667 0.667-0.667h30.666c0.369 0 0.667 0.298 0.667 0.667v6.666c0 0.369-0.298 0.667-0.667 0.667zM26.667 30.667h4v-5.334h-29.334v5.334h4v-2c0-0.368 0.299-0.667 0.667-0.667h6.666c0.368 0 0.667 0.298 0.667 0.667v2h5.333v-2c0-0.368 0.298-0.667 0.667-0.667h6.666c0.368 0 0.667 0.298 0.667 0.667v2z"></path>
</symbol>
<symbol id="notebook" viewBox="0 0 28 32">
<path fill="#fff" style="fill: var(--color3, #fff)" d="M6.65 7.217h11.366c0.005 0 0.011 0 0.017 0 0.285 0 0.517-0.231 0.517-0.517s-0.231-0.517-0.517-0.517c-0.006 0-0.012 0-0.017 0l0.001-0h-11.365c-0.005-0-0.011-0-0.017-0-0.285 0-0.517 0.231-0.517 0.517s0.231 0.517 0.517 0.517c0.006 0 0.012-0 0.017-0l-0.001 0zM6.65 10.317h11.366c0.285 0 0.517-0.231 0.517-0.517s-0.231-0.517-0.517-0.517h-11.365c-0.285 0-0.517 0.231-0.517 0.517s0.231 0.517 0.517 0.517v0zM6.65 13.417h11.366c0.005 0 0.011 0 0.017 0 0.285 0 0.517-0.231 0.517-0.517s-0.231-0.517-0.517-0.517c-0.006 0-0.012 0-0.017 0l0.001-0h-11.365c-0.005-0-0.011-0-0.017-0-0.285 0-0.517 0.231-0.517 0.517s0.231 0.517 0.517 0.517c0.006 0 0.012-0 0.017-0l-0.001 0zM6.65 16.517h11.366c0.285 0 0.517-0.231 0.517-0.517s-0.231-0.517-0.517-0.517h-11.365c-0.285 0-0.517 0.231-0.517 0.517s0.231 0.517 0.517 0.517v0zM6.65 19.617h4.133c0.005 0 0.011 0 0.017 0 0.285 0 0.517-0.231 0.517-0.517s-0.231-0.517-0.517-0.517c-0.006 0-0.012 0-0.017 0l0.001-0h-4.133c-0.005-0-0.011-0-0.017-0-0.285 0-0.517 0.231-0.517 0.517s0.231 0.517 0.517 0.517c0.006 0 0.012-0 0.017-0l-0.001 0z"></path>
<path fill="#fff" style="fill: var(--color3, #fff)" d="M27.067 12.707c-0.224-0.133-0.494-0.212-0.783-0.212-0.567 0-1.063 0.304-1.334 0.758l-0.004 0.007-1.246 2.126v-12.82c-0-0.285-0.231-0.516-0.516-0.516h-3.919s-1.552-1.581-1.614-1.528c-0.044-0.014-0.096-0.022-0.148-0.022-0 0-0.001 0-0.001 0h-14.984c-0.285 0-0.516 0.231-0.517 0.516v1.616c-0.898 0.238-1.55 1.043-1.55 2.001s0.652 1.763 1.536 1.998l0.014 0.003v1.164c-0.898 0.238-1.55 1.043-1.55 2.001s0.652 1.763 1.536 1.998l0.014 0.003v1.164c-0.899 0.237-1.551 1.043-1.551 2.001s0.652 1.764 1.537 1.998l0.014 0.003v0.647c-0.899 0.237-1.551 1.043-1.551 2.001s0.652 1.764 1.537 1.998l0.014 0.003v3.165c0 0.285 0.232 0.516 0.517 0.516h0.517v1.55c0 0.285 0.231 0.516 0.516 0.516h13.13l-0.354 0.604c-0.030 0.051-0.052 0.11-0.063 0.173l-0 0.003c0 0.003-0.002 0.005-0.002 0.009l-0.002 0.009v0.002l-0.413 2.741c-0.004 0.023-0.006 0.049-0.006 0.076 0 0.285 0.231 0.517 0.517 0.517 0.12 0 0.23-0.041 0.318-0.109l-0.001 0.001 2.197-1.707c0.141-0.109 0.21-0.176 0.199-0.266l1.203-2.053h2.911c0.285-0.001 0.516-0.231 0.516-0.516v-5.332l3.92-6.69c0.133-0.224 0.212-0.495 0.212-0.783 0-0.567-0.304-1.063-0.758-1.334l-0.007-0.004zM26.153 13.545c0.039-0.011 0.084-0.017 0.131-0.017 0.285 0 0.516 0.231 0.516 0.516 0 0.097-0.026 0.187-0.073 0.264l0.001-0.002-0.261 0.446-0.891-0.523 0.261-0.445c0.069-0.117 0.18-0.203 0.311-0.238l0.004-0.001zM18.37 28.57l-0.891-0.523 6.791-11.589 0.891 0.523-6.791 11.589zM18.016 2.264l1.853 1.853h-1.853v-1.853zM24.792 15.566l0.261-0.446 0.891 0.523-0.261 0.445-0.891-0.523zM22.667 3.083v13.95c0 0 0 0 0 0 0 0.035 0.003 0.070 0.010 0.103l-0.001-0.003-1.043 1.78v-14.279c0-0 0-0 0-0.001 0-0.142-0.057-0.271-0.15-0.364h-0.001l-1.185-1.186h2.369zM3.034 1.533h13.95v3.1c0 0.285 0.231 0.516 0.516 0.516h3.1v15.526l-2.104 3.59h-15.462v-2.649c0.73-0.192 1.293-0.756 1.482-1.471l0.003-0.014c0.007-0.032 0.011-0.069 0.011-0.107 0-0.286-0.232-0.517-0.517-0.517-0.232 0-0.428 0.153-0.494 0.363l-0.001 0.004c-0.072 0.273-0.247 0.497-0.479 0.633l-0.005 0.003v-3.543c0.729-0.193 1.293-0.756 1.482-1.471l0.003-0.014c0.011-0.040 0.018-0.086 0.018-0.134 0-0.285-0.231-0.517-0.517-0.517-0.242 0-0.444 0.166-0.501 0.39l-0.001 0.004c-0.072 0.273-0.247 0.497-0.479 0.633l-0.005 0.003v-4.060c0.729-0.193 1.293-0.756 1.482-1.471l0.003-0.014c0.010-0.039 0.016-0.083 0.016-0.129 0-0.285-0.231-0.517-0.517-0.517-0.24 0-0.441 0.163-0.5 0.384l-0.001 0.004c-0.072 0.273-0.247 0.497-0.479 0.633l-0.005 0.003v-4.060c0.729-0.192 1.292-0.755 1.482-1.47l0.003-0.014c0.010-0.039 0.016-0.083 0.016-0.129 0-0.285-0.231-0.517-0.517-0.517-0.24 0-0.441 0.163-0.5 0.384l-0.001 0.004c-0.072 0.273-0.247 0.497-0.479 0.633l-0.005 0.003v-3.995zM1.483 4.634c0-0.38 0.206-0.712 0.512-0.891l0.005-0.003v1.787c-0.311-0.182-0.516-0.513-0.517-0.893v-0zM1.483 9.8c0.001-0.38 0.206-0.712 0.512-0.891l0.005-0.003v1.787c-0.311-0.182-0.516-0.513-0.517-0.893v-0zM1.483 14.967c0-0.38 0.206-0.712 0.512-0.891l0.005-0.003v1.787c-0.311-0.182-0.516-0.513-0.517-0.893v-0zM1.483 19.617c0.001-0.38 0.206-0.712 0.512-0.891l0.005-0.003v1.787c-0.311-0.182-0.516-0.513-0.517-0.893v-0zM4.066 26.333v-1.034h13.824l-0.606 1.034h-13.218zM17.167 29.064l0.466 0.273-0.574 0.446 0.108-0.719zM22.666 26.333h-1.789l1.789-3.052v3.052z"></path>
</symbol>
<symbol id="airplane" viewBox="0 0 35 32">
<path fill="#fff" style="fill: var(--color3, #fff)" d="M19.050 6.379c0.112 0.158 0.343 0.205 0.518 0.104 0.361-0.208 0.058-0.546-0.099-0.768-0.271-0.384-0.733-0.62-1.235-0.633-0.621-0.041-1.19 0.382-1.498 0.866-0.119 0.153-0.080 0.364 0.089 0.474s0.403 0.073 0.523-0.079c0.223-0.284 0.429-0.594 0.87-0.583 0.437 0.011 0.626 0.326 0.833 0.618z"></path>
<path fill="#fff" style="fill: var(--color3, #fff)" d="M29.742 11.231l-0.902-0.020c-0.438-0.010-0.811 0.262-0.909 0.633l-2.234-1.254 0.029-1.348c0.005-0.222-0.085-0.432-0.255-0.593-0.168-0.157-0.394-0.254-0.642-0.256h-0.001l-0.902-0.020c-0.009-0-0.019-0-0.030-0-0.238 0-0.456 0.087-0.624 0.23l0.001-0.001c-0.148 0.128-0.241 0.294-0.27 0.474l-1.746-0.981-0.214-3.106c-0.045-0.646-0.353-1.248-0.869-1.697-0.117-0.103-0.247-0.198-0.384-0.282l-0.012-0.007-0.157-1.323c-0.035-0.291-0.186-0.562-0.425-0.762-0.237-0.195-0.541-0.315-0.873-0.32h-0.001c-0.67-0.014-1.248 0.426-1.345 1.025l-0.213 1.306c-0.752 0.404-1.287 1.115-1.376 1.951l-0.317 2.973-1.992 1.008c-0.025-0.194-0.116-0.362-0.249-0.486l-0.001-0c-0.168-0.157-0.394-0.254-0.642-0.257h-0.001l-0.902-0.020c-0.505-0.011-0.924 0.352-0.934 0.809l-0.029 1.349-2.286 1.156c-0.082-0.374-0.442-0.662-0.881-0.672l-0.902-0.020c-0.009-0-0.019-0-0.030-0-0.238 0-0.456 0.087-0.624 0.23l0.001-0.001c-0.167 0.14-0.275 0.347-0.282 0.579l-0 0.001-0.028 1.271-1.871 0.946c-0.499 0.253-0.817 0.732-0.828 1.25l-0.045 2.049c-0.032 0.602 0.647 1.204 1.38 1.072l11.005-1.737 0.339 4.351c0.014 0.187 0.193 0.329 0.399 0.316s0.362-0.174 0.347-0.36l-0.626-8.038c-0.009-0.11-0.014-0.237-0.014-0.366 0-0.178 0.010-0.353 0.029-0.526l-0.002 0.021 0.729-6.83c0.104-0.976 1.036-1.723 2.12-1.699 1.079 0.024 1.976 0.806 2.043 1.78l0.471 6.844c0.021 0.304 0.012 0.612-0.026 0.914l-1.43 11.36c-0 0.003-0.001 0.008-0.002 0.012l-0 0.001-0.18 1.428c-0.063 0.497-0.458 0.92-0.992 1.053l0.051-2.351c0.004-0.187-0.16-0.342-0.367-0.347s-0.377 0.143-0.381 0.331l-0.052 2.363c-0.553-0.142-0.954-0.595-0.994-1.113l-0.257-3.3c-0.015-0.187-0.193-0.328-0.399-0.316s-0.362 0.174-0.347 0.361l0.128 1.649c-0.631 0.341-1.259 0.896-1.866 1.655-0.126 0.152-0.202 0.349-0.202 0.564 0 0.159 0.042 0.308 0.115 0.437l-0.002-0.004c0.178 0.324 0.537 0.531 0.936 0.54l2.319 0.050c0.173 0.078 0.36 0.136 0.556 0.169l-0.016 0.706c-0.004 0.187 0.16 0.342 0.367 0.347 0.159-0.003 0.359-0.098 0.382-0.331l0.015-0.714c0.193-0.029 0.367-0.077 0.531-0.144l-0.015 0.005 2.316 0.051c0.785 0.047 1.408-0.849 0.913-1.498-0.572-0.782-1.172-1.363-1.786-1.731l0.941-7.472 10.72 2.176c0.659 0.144 1.414-0.319 1.426-1.011l0.045-2.049c0.011-0.518-0.285-1.011-0.772-1.285l-1.828-1.027 0.028-1.271c0.010-0.457-0.393-0.838-0.898-0.849zM11.099 8.922c0.002-0.084 0.079-0.15 0.171-0.148l0.902 0.020c0.075 0.015 0.134 0.017 0.165 0.155l-0.006 0.289-1.252 0.633 0.021-0.949zM6.066 11.543c0.016-0.067 0.018-0.121 0.171-0.148l0.902 0.020c0.093 0.002 0.166 0.072 0.165 0.155l-0.005 0.211-1.252 0.633 0.019-0.872zM3.795 17.449c-0.232 0.027-0.502-0.11-0.499-0.418l11.52-2.153 0.064 0.821-11.084 1.749zM14.659 11.708c-0.019 0.17-0.030 0.368-0.030 0.568 0 0.146 0.006 0.291 0.017 0.434l-0.001-0.019 0.117 1.504-11.452 2.141 0.029-1.325c0.006-0.279 0.178-0.538 0.447-0.674l2.491-1.26-0.015 0.683c-0.004 0.187 0.16 0.343 0.367 0.347 0.159-0.002 0.359-0.098 0.382-0.33l0.023-1.082 4.274-2.162-0.015 0.693c-0.004 0.187 0.16 0.343 0.367 0.347 0.159-0.002 0.359-0.098 0.381-0.33l0.024-1.092 2.918-1.476-0.324 3.035zM17.569 2.635l0.149-0.911c0.096-0.593 1.088-0.576 1.16 0.026l0.109 0.921c-0.235-0.064-0.505-0.101-0.784-0.101-0.224 0-0.443 0.024-0.654 0.070l0.020-0.004zM14.234 26.268c-0.022-0.037-0.035-0.082-0.035-0.13 0-0.064 0.023-0.122 0.061-0.168l-0 0c0.322-0.402 0.784-0.905 1.321-1.273l0.068 0.869c0.026 0.329 0.14 0.634 0.322 0.895l-1.456-0.032c-0.001 0-0.003 0-0.004 0-0.118 0-0.221-0.065-0.276-0.161l-0.001-0.002zM23.742 9.197c0.016-0.067 0.018-0.121 0.171-0.148l0.902 0.020c0.075 0.015 0.134 0.017 0.164 0.155l-0.020 0.949-1.223-0.687 0.006-0.289zM21.244 26.122c0.11 0.22 0.047 0.392-0.274 0.448l-1.454-0.032c0.187-0.242 0.315-0.539 0.358-0.863l0.001-0.009 0.11-0.87c0.518 0.391 0.957 0.913 1.26 1.327zM32.464 15.647l-0.028 1.289-8.492-1.951c-0.201-0.046-0.404 0.063-0.454 0.244s0.072 0.366 0.273 0.412l8.659 1.99-0.002 0.065c-0.004 0.122-0.067 0.229-0.161 0.294l-0.001 0.001c-0.073 0.051-0.163 0.082-0.261 0.082-0.033 0-0.065-0.003-0.096-0.010l0.003 0.001-10.796-2.191 0.102-0.815 0.88 0.224c0.177 0.018 0.364 0.002 0.461-0.235 0.055-0.18-0.062-0.367-0.262-0.418l-0.993-0.252 0.19-1.51c0.043-0.342 0.053-0.69 0.029-1.033l-0.201-2.91 2.645 1.486-0.024 1.092c-0.004 0.187 0.16 0.343 0.367 0.347 0.159-0.003 0.359-0.098 0.381-0.331l0.015-0.693 4.175 2.346-0.023 1.082c-0.004 0.187 0.16 0.343 0.367 0.347 0.159-0.002 0.359-0.098 0.381-0.33l0.015-0.683 2.433 1.367c0.263 0.148 0.422 0.414 0.417 0.694zM29.892 12.064l-0.019 0.871c-0.297-0.17-0.92-0.517-1.223-0.687l0.005-0.212c0.002-0.084 0.078-0.15 0.171-0.148l0.902 0.020c0.093 0.002 0.166 0.072 0.164 0.156z"></path>
</symbol>
<symbol id="ship" viewBox="0 0 32 32">
<path fill="#fff" style="fill: var(--color3, #fff)" d="M25.116 18.457l-4.043-2.494c-0.093-0.057-0.206-0.091-0.326-0.091-0.224 0-0.421 0.116-0.533 0.292l-0.002 0.003c-0.057 0.093-0.090 0.205-0.090 0.326 0 0.224 0.116 0.42 0.292 0.533l0.003 0.002 4.042 2.494c0.093 0.057 0.206 0.091 0.326 0.091 0.224 0 0.42-0.117 0.532-0.293l0.002-0.003c0.057-0.093 0.091-0.206 0.091-0.327 0-0.223-0.116-0.42-0.292-0.531l-0.003-0.002zM18.618 14.557c-0.346 0.003-0.624 0.284-0.624 0.63 0 0.049 0.006 0.097 0.016 0.143l-0.001-0.004c0.036 0.155 0.143 0.296 0.283 0.385 0.097 0.061 0.209 0.098 0.325 0.098 0.218 0 0.418-0.111 0.532-0.297 0.244-0.397-0.062-0.953-0.531-0.953zM12.146 16.134c-0.177-0.281-0.583-0.372-0.862-0.195l-4.018 2.534c-0.289 0.182-0.377 0.573-0.196 0.862 0.109 0.173 0.321 0.275 0.53 0.281 0.117 0.004 0.234-0.024 0.332-0.085l4.018-2.534c0.289-0.183 0.377-0.573 0.195-0.862zM13.731 14.509c-0.29 0-0.545 0.204-0.609 0.487-0.087 0.386 0.218 0.764 0.611 0.764 0.289 0 0.545-0.204 0.609-0.487 0.009-0.040 0.014-0.086 0.014-0.134 0-0.346-0.279-0.627-0.625-0.63h-0z"></path>
<path fill="#fff" style="fill: var(--color3, #fff)" d="M31.847 28.466c-0.115-0.132-0.284-0.215-0.472-0.215-0.157 0-0.301 0.058-0.411 0.154l0.001-0.001c-0.666 0.58-1.283 1.18-2.157 1.422-0.972 0.268-1.896 0.057-2.776-0.383l3.255-10.952c0.016-0.053 0.026-0.114 0.026-0.178 0-0.225-0.119-0.423-0.298-0.533l-0.003-0.002-3.012-1.825v-5.327c0-0.346-0.28-0.625-0.625-0.625h-1.25v-1.875c0-0.345-0.28-0.625-0.625-0.625h-1.969v-1.876c0-0.345-0.28-0.625-0.625-0.625h-3.031v-4.375c0-0.346-0.28-0.625-0.625-0.625h-2.5c-0.345 0-0.625 0.28-0.625 0.625v4.376h-3.032c-0.345 0-0.625 0.28-0.625 0.625v1.875h-1.969c-0.345 0-0.625 0.28-0.625 0.625v1.876h-1.25c-0.345 0-0.625 0.28-0.625 0.625v5.329l-3.011 1.825c-0.182 0.111-0.302 0.309-0.302 0.535 0 0.064 0.010 0.125 0.027 0.183l-0.001-0.004 3.249 10.929c-0.055-0.186-1.055-0.31-1.233-0.332-1.82-0.235-3.204 0.676-4.515 1.816-0.132 0.115-0.215 0.284-0.215 0.471 0 0.157 0.058 0.301 0.154 0.411l-0.001-0.001c0.116 0.13 0.285 0.212 0.473 0.212 0.156 0 0.299-0.057 0.41-0.151l-0.001 0.001c1.351-1.174 2.873-2.070 4.66-1.176 1.617 0.808 3.29 1.155 4.973 0.268 1.357-0.714 2.668-1.332 4.183-0.61l1.558 0.742c0.598 0.294 1.303 0.466 2.047 0.466 0.776 0 1.509-0.187 2.155-0.519l-0.027 0.012c0.813-0.407 1.64-0.948 2.569-1.012 0.911-0.063 1.791 0.276 2.592 0.677 1.058 0.529 2.295 0.635 3.431 0.311 1.046-0.298 1.807-0.964 2.608-1.661 0.132-0.115 0.215-0.284 0.215-0.472 0-0.157-0.058-0.301-0.154-0.411l0.001 0.001zM24.75 11.252v3.946l-6.513-3.946h6.513zM15.375 1.252h1.25v3.75h-1.25v-3.75zM11.719 6.251h8.563v1.25h-8.563v-1.25zM7.251 11.251h6.513l-6.513 3.946v-3.946zM15.375 29.196c0-0.111-0.891-0.316-1.007-0.341-1.087-0.236-2.255-0.086-3.241 0.433-0.716 0.377-1.406 0.816-2.225 0.921l-0.005 0.001c-0.132 0.017-0.286 0.027-0.441 0.027-0.352 0-0.692-0.051-1.014-0.146l0.025 0.006-3.418-11.499 11.326-6.862v17.461zM9.125 10.001v-1.25h13.75v1.25h-13.75zM24.877 28.943c0.007-0.194-1.752-0.192-1.87-0.18-1.085 0.115-2.023 0.673-2.981 1.151-1.131 0.566-2.295 0.403-3.4-0.124v-18.055l11.326 6.862-3.075 10.344z"></path>
</symbol>
<symbol id="arrow-left" viewBox="0 0 19 32">
<path d="M1.77 15.443c-0.366 0.366-0.593 0.872-0.593 1.43s0.226 1.064 0.593 1.43l12.877 12.874c0.366 0.366 0.872 0.593 1.43 0.593 1.117 0 2.023-0.906 2.023-2.023 0-0.559-0.226-1.064-0.593-1.43v0l-11.446-11.443 11.446-11.446c0.366-0.366 0.593-0.872 0.593-1.43 0-1.117-0.906-2.023-2.023-2.023-0.559 0-1.064 0.226-1.43 0.593l-12.877 12.877zM8.298 14.848h-5.098v4.048h5.101v-4.048z"></path>
</symbol>
<symbol id="telegram" viewBox="0 0 36 32">
<path fill="#fff" style="fill: var(--color3, #fff)" d="M3.488 13.568l29.824-11.584c1.387-0.503 2.594 0.341 2.146 2.449v-0.002l-5.077 24.105c-0.375 1.707-1.382 2.125-2.795 1.318l-7.731-5.741-3.731 3.62c-0.412 0.414-0.759 0.766-1.557 0.766l0.546-7.93 14.334-13.045c0.623-0.555-0.139-0.866-0.96-0.316l-17.713 11.236-7.637-2.4c-1.655-0.529-1.692-1.67 0.352-2.475z"></path>
</symbol>
<symbol id="viber" viewBox="0 0 30 32">
<path fill="#fff" style="fill: var(--color3, #fff)" d="M28.526 7.869l-0.008-0.035c-0.704-2.866-3.878-5.943-6.792-6.583l-0.034-0.008c-2.136-0.432-4.591-0.68-7.103-0.68s-4.968 0.247-7.342 0.719l0.238-0.040-0.035 0.008c-2.912 0.638-6.086 3.717-6.792 6.581l-0.008 0.035c-0.415 1.814-0.653 3.897-0.653 6.035s0.238 4.221 0.688 6.224l-0.036-0.189 0.008 0.035c0.675 2.744 3.611 5.681 6.418 6.488v3.2c0 1.158 1.402 1.728 2.199 0.891l3.218-3.369c0.636 0.039 1.379 0.061 2.127 0.061 2.501 0 4.945-0.247 7.307-0.719l-0.237 0.039 0.034-0.006c2.914-0.64 6.088-3.718 6.792-6.583l0.009-0.037c0.415-1.814 0.653-3.896 0.653-6.034s-0.238-4.221-0.688-6.223l0.036 0.189zM25.981 19.358c-0.472 1.87-2.88 4.197-4.795 4.626-2.507 0.48-5.033 0.686-7.558 0.614-0.001-0-0.002-0-0.004-0-0.051 0-0.096 0.021-0.129 0.055l-0 0-4.849 5.015c-0.053 0.055-0.128 0.089-0.21 0.089-0.161 0-0.292-0.131-0.293-0.292v-5.303c-0.001-0.089-0.065-0.163-0.15-0.178l-0.001-0c-1.912-0.43-4.323-2.758-4.792-4.626-0.373-1.639-0.588-3.522-0.588-5.454s0.214-3.815 0.62-5.625l-0.032 0.171c0.472-1.87 2.88-4.195 4.794-4.625 4.378-0.838 8.817-0.838 13.193 0 1.915 0.43 4.325 2.755 4.794 4.625 0.374 1.639 0.588 3.522 0.588 5.454s-0.214 3.815-0.62 5.625l0.032-0.171z"></path>
<path fill="#fff" style="fill: var(--color3, #fff)" d="M18.755 21.81c-0.294-0.091-0.574-0.151-0.835-0.259-2.7-1.128-5.184-2.584-7.153-4.815-1.118-1.271-1.995-2.703-2.735-4.219-0.35-0.719-0.646-1.466-0.948-2.208-0.274-0.677 0.13-1.376 0.556-1.886 0.401-0.478 0.914-0.844 1.474-1.115 0.434-0.21 0.864-0.088 1.182 0.283 0.686 0.803 1.318 1.649 1.829 2.58 0.315 0.573 0.229 1.274-0.34 1.664-0.139 0.094-0.265 0.206-0.395 0.312-0.116 0.089-0.215 0.194-0.294 0.312l-0.003 0.005c-0.074 0.125-0.118 0.276-0.118 0.437 0 0.116 0.023 0.226 0.064 0.327l-0.002-0.006c0.701 1.946 1.886 3.459 3.829 4.273 0.311 0.131 0.625 0.282 0.981 0.241 0.6-0.072 0.795-0.734 1.216-1.082 0.411-0.337 0.936-0.341 1.378-0.061 0.443 0.283 0.873 0.587 1.3 0.893 0.418 0.3 0.835 0.594 1.222 0.937 0.37 0.331 0.498 0.762 0.29 1.21-0.382 0.818-0.94 1.501-1.743 1.935-0.229 0.122-0.498 0.163-0.754 0.242-0.294-0.091 0.256-0.079 0 0zM14.598 6.37c3.529 0.101 6.43 2.462 7.051 5.982 0.107 0.6 0.145 1.213 0.192 1.821 0.020 0.256-0.125 0.5-0.398 0.503-0.283 0.003-0.411-0.235-0.43-0.491-0.037-0.507-0.061-1.016-0.131-1.518-0.366-2.651-2.462-4.846-5.080-5.318-0.395-0.070-0.797-0.088-1.196-0.131-0.253-0.026-0.584-0.041-0.64-0.358-0.046-0.265 0.177-0.475 0.427-0.489 0.069-0.005 0.137 0 0.204 0 3.531 0.099-0.067 0 0 0z"></path>
<path fill="#fff" style="fill: var(--color3, #fff)" d="M19.962 13.384c-0.005 0.046-0.008 0.149-0.034 0.247-0.094 0.358-0.631 0.402-0.756 0.043-0.027-0.090-0.042-0.192-0.042-0.299 0-0.016 0-0.032 0.001-0.048l-0 0.002c-0.002-0.754-0.165-1.509-0.541-2.164-0.397-0.682-0.968-1.224-1.654-1.574l-0.023-0.011c-0.386-0.189-0.835-0.333-1.306-0.408l-0.027-0.004c-0.201-0.034-0.405-0.055-0.608-0.082-0.244-0.035-0.375-0.192-0.364-0.436 0-0.21 0.171-0.38 0.381-0.38 0.015 0 0.030 0.001 0.044 0.003l-0.002-0c0.811 0.046 1.592 0.222 2.313 0.606 1.464 0.783 2.301 2.018 2.545 3.666 0.012 0.075 0.030 0.149 0.035 0.224 0.015 0.184 0.023 0.37 0.037 0.614-0.005 0.046-0.014-0.244 0 0z"></path>
<path fill="#fff" style="fill: var(--color3, #fff)" d="M17.768 13.297c-0.297 0.005-0.454-0.16-0.485-0.433-0.021-0.19-0.038-0.384-0.084-0.568-0.084-0.379-0.294-0.7-0.582-0.924l-0.004-0.003c-0.136-0.1-0.295-0.179-0.466-0.229l-0.011-0.003c-0.216-0.064-0.442-0.046-0.658-0.099-0.235-0.058-0.366-0.25-0.328-0.472 0.039-0.197 0.211-0.344 0.417-0.344 0.011 0 0.021 0 0.032 0.001l-0.001-0c1.368 0.099 2.347 0.812 2.487 2.437 0.009 0.114 0.021 0.236-0.005 0.346-0.043 0.187-0.18 0.282-0.315 0.29-0.296 0.006 0.134-0.008 0 0z"></path>
</symbol>
<symbol id="arrow-down" viewBox="0 0 57 32">
<path fill="#ff8a00" style="fill: var(--color6, #ff8a00)" d="M25.931 30.958c0.643 0.643 1.532 1.041 2.514 1.041s1.87-0.398 2.514-1.041l22.628-22.628c0.596-0.634 0.962-1.49 0.962-2.432 0-1.964-1.592-3.556-3.556-3.556-0.943 0-1.799 0.367-2.436 0.965l0.002-0.002-20.114 20.11-20.114-20.114c-0.634-0.596-1.49-0.962-2.432-0.962-1.964 0-3.556 1.592-3.556 3.556 0 0.943 0.367 1.799 0.965 2.436l-0.002-0.002 22.628 22.628zM24.889 24.889v3.556h7.111v-3.556h-7.111z"></path>
</symbol>
<symbol id="magnifying-glass" viewBox="0 0 32 32">
<path d="M31.805 29.92l-9.296-9.296c1.759-2.15 2.825-4.926 2.825-7.951 0-0.002 0-0.004 0-0.006v0c0-6.986-5.683-12.668-12.668-12.668-6.983 0-12.666 5.683-12.666 12.666 0 6.985 5.683 12.668 12.666 12.668 3.014 0 5.78-1.062 7.956-2.825l9.297 9.295c0.26 0.262 0.682 0.262 0.943 0l0.943-0.941c0.121-0.121 0.195-0.287 0.195-0.471s-0.075-0.351-0.195-0.471v0zM12.666 22.666c-5.52-0.007-9.993-4.48-10-9.999v-0.001c0.007-5.52 4.48-9.993 9.999-10h0.001c5.52 0.007 9.993 4.48 10 9.999v0.001c-0.007 5.52-4.48 9.993-9.999 10h-0.001z"></path>
</symbol>
</defs>
</svg>
