<svg width="29" height="29" viewBox="0 0 29 29" fill="none" xmlns="http://www.w3.org/2000/svg">
<path d="M14.255 28.51C10.8797 28.51 7.60604 27.3092 5.03697 25.1288C4.43375 24.6172 3.86789 24.05 3.35527 23.443C1.19146 20.8782 0 17.6153 0 14.255C0 10.4473 1.48274 6.86757 4.17516 4.17516C6.86757 1.48274 10.4473 0 14.255 0C18.0627 0 21.6424 1.48274 24.3348 4.17516C27.0273 6.86757 28.51 10.4473 28.51 14.255C28.51 17.6154 27.3185 20.8783 25.155 23.4427C24.6421 24.05 24.0763 24.6172 23.4729 25.129C20.904 27.3092 17.6303 28.51 14.255 28.51ZM14.255 1.78188C7.3773 1.78188 1.78188 7.3773 1.78188 14.255C1.78188 17.1954 2.82422 20.0502 4.7169 22.2937C5.16571 22.825 5.66135 23.3219 6.18979 23.7702C8.4374 25.6777 11.3016 26.7281 14.255 26.7281C17.2084 26.7281 20.0726 25.6777 22.32 23.7703C22.8486 23.3219 23.3443 22.825 23.7934 22.2933C25.6858 20.0503 26.7281 17.1954 26.7281 14.255C26.7281 7.3773 21.1327 1.78188 14.255 1.78188Z" fill="#333333"/>
<path d="M14.2548 14.255C11.3072 14.255 8.90918 11.857 8.90918 8.90935C8.90918 5.96173 11.3072 3.56372 14.2548 3.56372C17.2024 3.56372 19.6004 5.96173 19.6004 8.90935C19.6004 11.857 17.2024 14.255 14.2548 14.255ZM14.2548 5.3456C12.2897 5.3456 10.6911 6.94427 10.6911 8.90935C10.6911 10.8744 12.2897 12.4731 14.2548 12.4731C16.2199 12.4731 17.8186 10.8744 17.8186 8.90935C17.8186 6.94427 16.2199 5.3456 14.2548 5.3456Z" fill="#333333"/>
<path d="M22.8971 25.3407C22.8253 25.3407 22.7523 25.332 22.6795 25.3137C22.2023 25.194 21.9125 24.7099 22.0323 24.2327C22.1922 23.5955 22.2733 22.9363 22.2733 22.2735C22.2733 17.9143 18.7293 14.3182 14.3722 14.2556L14.2549 14.255L14.1376 14.2556C9.7805 14.3182 6.23646 17.9143 6.23646 22.2735C6.23646 22.9363 6.3176 23.5955 6.47752 24.2327C6.59729 24.7099 6.30752 25.194 5.83031 25.3137C5.3531 25.4335 4.86904 25.1438 4.74927 24.6665C4.55371 23.8876 4.45459 23.0824 4.45459 22.2735C4.45459 19.6798 5.45784 17.235 7.27953 15.3893C9.09944 13.5454 11.5274 12.51 14.116 12.4738C14.1202 12.4738 14.1243 12.4738 14.1285 12.4738L14.2549 12.4731L14.3813 12.4737C14.3855 12.4737 14.3896 12.4737 14.3938 12.4738C16.9825 12.5099 19.4104 13.5453 21.2303 15.3892C23.052 17.235 24.0552 19.6798 24.0552 22.2735C24.0552 23.0824 23.9561 23.8876 23.7605 24.6665C23.659 25.0709 23.296 25.3407 22.8971 25.3407Z" fill="#333333"/>
</svg>
