<svg width="20" height="21" viewBox="0 0 20 21" fill="none" xmlns="http://www.w3.org/2000/svg">
<path d="M18.7207 5.16444L18.715 5.14142C18.253 3.25975 16.1703 1.24062 14.2577 0.820554L14.2361 0.816079C11.1426 0.221463 8.00585 0.221463 4.91291 0.816079L4.8907 0.820554C2.97871 1.24062 0.896025 3.25975 0.433417 5.14142L0.428341 5.16444C-0.14278 7.79226 -0.14278 10.4572 0.428341 13.085L0.433417 13.108C0.87629 14.9094 2.80389 16.8357 4.64512 17.3655V19.466C4.64512 20.2262 5.56462 20.5996 6.08751 20.051L8.19971 17.8388C8.65781 17.8647 9.11617 17.879 9.57452 17.879C11.1318 17.879 12.6897 17.7307 14.2361 17.4334L14.2577 17.4289C16.1703 17.0089 18.253 14.9897 18.715 13.1081L18.7207 13.085C19.2918 10.4572 19.2918 7.79226 18.7207 5.16444ZM17.0492 12.7039C16.7408 13.9315 15.1594 15.4577 13.903 15.7396C12.2581 16.0548 10.6002 16.1895 8.94394 16.1433C8.91101 16.1424 8.87934 16.1552 8.85637 16.179C8.62132 16.4221 7.31415 17.7741 7.31415 17.7741L5.67377 19.4704C5.55383 19.5963 5.34315 19.5107 5.34315 19.3367V15.8572C5.34315 15.7997 5.30241 15.7508 5.24638 15.7398C5.24606 15.7397 5.24574 15.7396 5.24543 15.7396C3.98896 15.4576 2.40823 13.9314 2.09919 12.7038C1.58518 10.3286 1.58518 7.92071 2.09919 5.54544C2.40823 4.31785 3.98896 2.79167 5.24543 2.50971C8.11817 1.95921 11.0309 1.95921 13.903 2.50971C15.1601 2.79167 16.7408 4.31785 17.0492 5.54544C17.5638 7.92077 17.5638 10.3286 17.0492 12.7039Z" fill="white"/>
<path d="M12.3079 14.313C12.1148 14.2539 11.9307 14.2142 11.7597 14.1427C9.98822 13.4022 8.35786 12.4468 7.06643 10.9823C6.33203 10.1495 5.75723 9.20933 5.27133 8.21434C5.04092 7.74248 4.84674 7.25214 4.64881 6.765C4.46834 6.32076 4.73416 5.86182 5.01407 5.5271C5.27673 5.21298 5.6147 4.97257 5.98073 4.7954C6.26641 4.6571 6.54823 4.73683 6.75688 4.98082C7.20794 5.5083 7.62225 6.06277 7.95776 6.67421C8.16406 7.05029 8.10745 7.51 7.73356 7.76594C7.64269 7.82815 7.55988 7.90117 7.47522 7.97144C7.40098 8.03301 7.33111 8.09522 7.28022 8.17859C7.18719 8.33115 7.18275 8.51107 7.24265 8.67693C7.70373 9.95363 8.4809 10.9464 9.75628 11.4811C9.96036 11.5666 10.1653 11.6663 10.4004 11.6386C10.7942 11.5923 10.9217 11.1571 11.1976 10.9298C11.4673 10.7076 11.8119 10.7046 12.1024 10.8899C12.393 11.0752 12.6747 11.2741 12.9547 11.4751C13.2295 11.6724 13.5031 11.8654 13.7567 12.0904C14.0004 12.3067 14.0844 12.5904 13.9471 12.884C13.6958 13.4215 13.3302 13.8688 12.8027 14.1543C12.6538 14.2348 12.4759 14.2609 12.3079 14.313C12.1148 14.2538 12.4759 14.2609 12.3079 14.313Z" fill="white"/>
<path d="M9.57938 4.18042C11.8965 4.24587 13.7997 5.79633 14.2075 8.10605C14.277 8.4996 14.3018 8.90197 14.3327 9.30141C14.3457 9.46942 14.2513 9.62906 14.0715 9.63123C13.8857 9.63347 13.8022 9.47678 13.7901 9.30883C13.7663 8.97639 13.7497 8.64247 13.7043 8.31277C13.4644 6.57242 12.088 5.13258 10.3699 4.82362C10.1113 4.7771 9.84672 4.76488 9.58483 4.73718C9.41927 4.71965 9.20244 4.70954 9.16576 4.50205C9.13498 4.32808 9.28062 4.18957 9.44491 4.18067C9.48958 4.17818 9.53451 4.18022 9.57938 4.18042C11.8965 4.24587 9.53451 4.18022 9.57938 4.18042Z" fill="white"/>
<path d="M13.1005 8.78311C13.0967 8.81229 13.0946 8.88088 13.0777 8.9455C13.0162 9.18005 12.6635 9.20942 12.5823 8.97269C12.5582 8.90244 12.5546 8.82253 12.5545 8.7469C12.5536 8.25207 12.447 7.75775 12.1995 7.32722C11.9451 6.88473 11.5564 6.51274 11.1005 6.28766C10.8249 6.15157 10.5267 6.06698 10.2246 6.01657C10.0926 5.99456 9.95912 5.98119 9.82643 5.96257C9.66562 5.94005 9.57977 5.83672 9.58738 5.67695C9.59449 5.52724 9.703 5.41956 9.86482 5.42877C10.3966 5.45923 10.9102 5.5751 11.383 5.8275C12.3444 6.34082 12.8935 7.15108 13.0538 8.233C13.0611 8.28201 13.0727 8.33057 13.0764 8.37978C13.0855 8.50128 13.0912 8.6229 13.1005 8.78311C13.0967 8.81229 13.0912 8.6229 13.1005 8.78311Z" fill="white"/>
<path d="M11.6592 8.72559C11.4654 8.72911 11.3616 8.62097 11.3416 8.44183C11.3277 8.31693 11.3168 8.19036 11.2872 8.06885C11.2289 7.82953 11.1027 7.60774 10.903 7.4611C10.8087 7.39183 10.7018 7.34137 10.5899 7.30882C10.4477 7.26744 10.3 7.27883 10.1581 7.24378C10.004 7.20573 9.91881 7.07999 9.94305 6.93431C9.96507 6.80173 10.0931 6.69825 10.2368 6.70874C11.1351 6.7741 11.7772 7.24218 11.8688 8.30804C11.8753 8.38325 11.8829 8.46274 11.8664 8.53469C11.838 8.65787 11.7475 8.71958 11.6592 8.72559C11.4654 8.72911 11.7475 8.71958 11.6592 8.72559Z" fill="white"/>
</svg>
